<svg width="16" height="16" viewBox="0 0 16 16" fill="none" xmlns="http://www.w3.org/2000/svg">
<path fill-rule="evenodd" clip-rule="evenodd" d="M8.00002 15C8.13263 15 8.25981 14.9473 8.35357 14.8535C8.44734 14.7598 8.50002 14.6326 8.50002 14.5V2.70698L11.646 5.85398C11.7399 5.94787 11.8672 6.00061 12 6.00061C12.1328 6.00061 12.2601 5.94787 12.354 5.85398C12.4479 5.76009 12.5007 5.63275 12.5007 5.49998C12.5007 5.3672 12.4479 5.23986 12.354 5.14598L8.35402 1.14598C8.30758 1.09942 8.2524 1.06247 8.19165 1.03727C8.13091 1.01206 8.06579 0.999084 8.00002 0.999084C7.93425 0.999084 7.86913 1.01206 7.80839 1.03727C7.74764 1.06247 7.69247 1.09942 7.64602 1.14598L3.64602 5.14598C3.59953 5.19247 3.56266 5.24765 3.5375 5.30839C3.51234 5.36913 3.49939 5.43423 3.49939 5.49998C3.49939 5.63275 3.55213 5.76009 3.64602 5.85398C3.73991 5.94787 3.86725 6.00061 4.00002 6.00061C4.1328 6.00061 4.26013 5.94787 4.35402 5.85398L7.50002 2.70698V14.5C7.50002 14.6326 7.5527 14.7598 7.64647 14.8535C7.74024 14.9473 7.86741 15 8.00002 15Z" fill="currentColor"></path>
</svg>
