<svg width="16" height="16" viewBox="0 0 16 16" fill="none" xmlns="http://www.w3.org/2000/svg">
<g clip-path="url(#clip0_85_6475)">
<path d="M16 8.04899C16 3.60299 12.418 -0.00100708 8.00005 -0.00100708C3.58005 -7.08003e-06 -0.00195312 3.60299 -0.00195312 8.04999C-0.00195312 12.067 2.92405 15.397 6.74805 16.001V10.376H4.71805V8.04999H6.75005V6.27499C6.75005 4.25799 7.94505 3.14399 9.77205 3.14399C10.648 3.14399 11.563 3.30099 11.563 3.30099V5.28099H10.554C9.56105 5.28099 9.25105 5.90199 9.25105 6.53899V8.04899H11.469L11.115 10.375H9.25005V16C13.074 15.396 16 12.066 16 8.04899Z" fill="currentColor"></path>
</g>
<defs>
<clipPath id="clip0_85_6475">
<rect width="16" height="16" fill="white"></rect>
</clipPath>
</defs>
</svg>
