<svg width="40" height="40" viewBox="0 0 100 101" fill="none" xmlns="http://www.w3.org/2000/svg">
    <path d="M84.3123 23.7605C84.0377 25.027 81.5647 28.973 78.4061 32.2109L76.3461 30.5202C76.3461 30.5202 82.2534 25.4512 81.9788 23.0556C81.9788 23.0556 78.9543 21.9295 79.3663 18.9723C79.3663 18.9723 81.0143 21.6457 82.1129 20.8003C83.4862 19.958 81.703 17.8462 80.1924 16.4363C78.8191 15.1698 79.0927 12.7741 79.0927 12.7741C79.0927 12.7741 80.6033 16.717 82.526 16.4363C83.4873 16.2959 82.3918 14.181 82.3918 13.1953C82.3918 13.1953 84.0398 15.3102 85.1384 16.0121C86.2371 16.8574 86.5085 19.1127 85.9592 20.5196C85.5472 21.7891 84.4497 22.9152 84.3123 23.7605ZM49.4326 63.6198C49.8446 63.4795 48.3329 64.6056 44.8997 64.1814C42.0158 63.9006 39.8185 63.0583 37.3465 63.1987C35.0119 63.4795 33.0872 65.1702 34.4605 72.354C34.4605 72.354 34.4637 72.9156 35.6996 72.9156C36.9356 72.9156 39.8185 74.3224 41.4664 77.2827C41.4664 77.2827 36.2479 73.7609 35.2866 75.4516C34.8746 76.1566 35.1503 76.8585 35.6996 77.1423C36.3863 77.423 27.4598 79.8187 26.7732 79.9591C26.2239 80.0994 25.9471 80.5206 27.3204 81.366C28.5563 82.2113 29.5155 83.0566 29.2408 83.0566C28.9662 83.0566 27.594 82.9163 27.594 83.3374C27.594 83.7616 27.4588 84.7473 26.3601 84.7473C25.3988 84.7473 24.8474 84.1827 24.8474 83.3374C24.8474 82.4921 24.8463 80.9448 23.7476 80.9448C22.649 80.9448 21.8272 82.2113 21.8272 84.3231C21.8272 85.8734 20.1771 86.2976 19.6277 86.2976C19.0784 86.2976 18.1203 85.8734 18.1203 84.8877C18.1203 84.6069 17.5699 84.6069 17.0206 84.6069C16.4713 84.6069 19.0827 82.7759 19.9067 82.2113C20.3187 81.9305 20.3155 81.2256 20.0408 80.9448C19.7661 80.664 19.2179 80.2398 18.3939 81.0852C17.5699 81.9305 16.7449 82.4921 15.9209 82.4921C15.0969 82.4921 14.274 81.7871 14.274 80.9448C14.274 80.0995 14.686 79.2541 13.5874 78.6895C12.4887 78.128 19.9067 79.1137 19.9067 78.128C19.9067 77.1423 18.9454 76.8585 18.5334 76.8585C18.1214 76.8585 15.6473 77.2827 15.6473 75.592C15.6473 74.7466 16.334 74.7466 16.334 74.1821C16.334 73.6205 15.5078 73.7609 15.5078 73.7609C15.5078 73.7609 17.2942 72.4944 18.6675 73.9013C20.0408 75.1678 20.5891 76.9988 22.3743 76.9988C24.0223 76.9988 29.3803 75.4516 29.3803 69.818C29.3803 66.1559 27.4598 63.3391 27.4598 62.9149C27.4598 62.4937 28.9673 63.1987 28.9673 61.7888C28.9673 60.2385 19.631 59.9577 16.747 62.9149C16.747 62.9149 17.159 59.2528 22.2402 59.2528C24.1629 59.2528 24.8506 59.9577 26.0865 59.6769C26.9105 59.3931 24.2991 58.4074 24.5738 56.436C24.5738 56.436 26.2207 58.4074 28.2806 58.4074C28.9673 58.4074 30.2064 54.7483 36.3863 54.7483C42.5661 54.7483 43.388 54.8856 43.8 55.1695C44.212 55.4502 43.6626 56.2956 44.4866 56.5763C45.3106 56.8601 47.6463 58.6912 47.6463 59.6769C47.6463 60.6627 46.1324 60.9434 47.0937 62.3534C48.0551 63.7602 49.0207 63.7602 49.4326 63.6198ZM86.6459 43.356C86.9205 43.0203 87.3357 42.5473 88.5717 42.9135C88.5717 42.9135 86.2371 44.1831 86.5117 46.9998C86.7864 49.8166 84.3112 56.7198 77.7194 57.7055C77.7194 57.7055 76.7592 64.044 69.206 63.3391C69.206 63.3391 75.521 69.818 75.2464 77.1392C75.2464 77.1392 71.1297 65.0298 61.3793 59.8173C61.3793 59.8173 60.831 59.6739 61.1057 60.8031C61.243 61.7888 60.5553 63.9006 60.006 64.8863C59.4567 65.8751 59.3172 75.4516 67.4197 77.7038C69.3423 78.128 71.266 77.5634 71.266 77.5634C71.266 77.5634 70.03 79.6752 65.7728 79.5349C64.5368 79.5349 64.672 81.366 66.3199 81.366C66.7319 81.366 64.1227 91.0859 60.8267 94.7449C60.1401 95.3217 60.6937 95.5201 61.1057 95.6513C61.243 95.6788 61.3793 95.7062 61.3793 95.7337C61.6539 95.7337 63.1656 96.576 63.8523 97.1406C63.8523 97.1406 62.8899 97.0002 62.7526 97.281C62.7526 97.3329 62.7526 97.4275 62.7526 97.5465C62.6153 98.0775 62.3417 99.112 61.1057 99.112C59.5951 99.112 59.1799 97.5648 59.1799 96.7195C59.1799 95.8741 58.358 95.8741 57.946 96.0145C57.6714 96.0145 56.5738 96.4356 56.2991 97.8456C56.0245 99.2555 55.6125 100.943 54.2392 100.943C52.8659 100.943 52.4528 99.9574 52.4528 99.112C52.4528 98.9167 52.3144 98.932 52.0398 98.9656C51.7651 99.0022 51.4894 99.0571 50.9401 98.8313C50.9401 98.8313 55.0589 96.4356 54.6469 95.4499C54.2349 94.4672 53.5483 94.7449 53.2736 95.0288C52.9989 95.3095 51.2179 96.576 50.1193 96.7195C48.8833 96.8598 48.3329 95.1691 49.0196 93.9026C49.1569 93.6646 49.0207 93.5609 48.746 93.4144C48.4713 93.3015 48.1967 93.1611 48.0593 92.9169C48.0593 92.9169 53.824 93.6219 53.6867 92.3524C53.5493 91.0859 52.4528 91.2262 51.7662 91.3666C51.2169 91.507 49.5668 91.3666 49.5668 90.1001C49.5668 89.7278 49.8425 89.5142 49.9798 89.3097C50.1171 89.1266 50.2534 88.9557 50.2534 88.6902C50.2534 88.2691 49.7062 87.9853 49.7062 87.9853C49.7062 87.9853 50.8017 87.7045 51.9003 88.1256C52.4496 88.2965 53.0032 88.8886 53.5525 89.5416C54.3765 90.5274 55.4719 91.6474 56.4333 91.6474C58.0812 91.6474 59.4534 89.1144 59.4534 84.1827C59.4534 79.4433 59.3161 79.3914 58.0801 78.894C57.9428 78.8726 57.9439 78.8543 57.8066 78.8299C57.8066 78.7231 57.8066 78.5308 57.8066 78.3172C57.8066 77.9815 57.6714 77.597 57.2594 77.423C56.5727 77.1392 55.4752 78.5492 55.6125 84.4666C55.6125 84.4666 54.5106 82.3517 54.3733 79.3945C54.3733 78.9734 54.3733 78.5705 54.3733 78.2196C54.5106 77.6275 54.5106 77.1758 54.3733 76.9988C54.236 76.8859 53.9645 77.1606 53.5525 77.5817C53.0032 78.2104 52.176 79.1687 50.9401 79.6753C50.9401 79.6753 52.5869 77.1392 52.5869 75.4516C52.5869 74.9023 52.3144 74.6215 52.0398 74.24C51.3531 73.4496 50.2534 72.2289 50.2534 67.282C50.2534 65.6065 50.5313 64.6819 50.8059 63.7938C51.0806 62.9637 51.2136 62.1611 51.2136 60.8031C51.2136 58.3311 46.9596 55.5357 44.213 53.7443C43.801 53.494 43.388 53.2621 43.1133 53.0546C40.7787 51.2235 38.3057 48.8309 37.8937 48.2694C37.7564 48.0405 38.3046 47.3355 38.8539 46.5085C39.8153 45.2786 41.0534 43.7863 40.3667 43.1973C39.4054 42.3917 38.7198 43.4628 38.0332 44.5706C37.8959 44.8239 37.7575 45.0742 37.6201 45.3092C36.7961 46.5787 35.5623 47.7048 35.013 47.9856C34.7383 48.0893 34.8735 47.4759 34.8735 46.6611C35.0108 45.2817 35.1482 43.3377 34.1869 43.3377C32.6762 43.3377 32.5389 44.888 32.8136 45.4495C32.9509 45.6815 32.8125 45.6998 32.4005 45.7273C31.8512 45.77 30.8899 45.831 30.3406 46.5787V46.6123C29.6539 47.4485 28.8321 48.4433 28.4201 50.9427C28.4201 50.9427 27.5961 48.9713 28.4201 46.8595C28.6947 46.2949 25.8119 46.7191 20.5933 47.9856C19.7694 48.126 19.7672 48.6905 19.7672 50.0974C19.9045 51.7881 19.9045 52.6334 19.7672 53.3384C19.6299 53.7595 19.3542 52.6334 19.3542 52.3527C19.3542 52.2764 19.2158 52.313 18.9411 52.371C18.1171 52.5236 16.747 52.7982 16.747 51.367C16.747 50.2439 17.0217 50.0333 17.4337 49.8533C17.571 49.7159 17.8467 49.5969 17.8467 49.1147C17.8467 47.9856 17.159 47.2806 16.0604 47.2806C15.5111 47.2806 14.9596 47.775 14.5476 48.3152C13.9983 48.9621 13.3149 49.6763 12.3535 49.6763C10.7056 49.6763 10.4277 48.4098 10.4277 47.9856C10.4277 47.775 10.4299 47.598 10.5672 47.424C10.5672 47.247 10.7013 47.07 10.7013 46.8595C10.7013 46.4353 10.2893 46.0141 10.0146 46.0141C9.87731 46.0141 10.1541 45.7334 10.8408 45.7334C10.9781 45.7334 11.1133 45.7517 11.3879 45.7791C12.6239 45.9012 15.2343 46.1515 15.2343 44.7476C15.2343 44.2105 14.6871 44.2441 14.0004 44.2929C13.8631 44.3082 13.5884 44.3234 13.3138 44.3234C13.3138 44.3082 13.1775 44.296 13.0402 44.2807C11.9416 44.1586 10.1541 43.9572 10.1541 42.0712C10.1541 40.9421 11.5274 40.6613 11.5274 40.6613C11.5274 40.6613 11.8042 40.2371 11.6669 39.5352C11.3922 38.8302 14.4135 41.5067 15.1001 42.2116C15.6495 42.9135 16.3361 42.4924 16.4734 42.352C16.6108 42.2116 17.0217 41.5066 16.0604 40.9421C14.9617 40.3805 14.8212 39.816 14.8212 38.8302C14.8212 37.8445 15.7857 37.7041 16.0604 37.7041C16.335 37.7041 16.4692 36.8588 16.1945 36.2942C15.9198 35.7327 17.5678 36.9992 18.2544 38.6898C18.3918 38.9798 18.3939 39.3948 18.3939 39.8465C18.3939 40.9268 18.3928 42.236 20.0408 42.6327C20.0408 42.6327 20.4549 42.7731 22.2402 42.0712C23.7509 41.3663 32.4005 38.2687 32.4005 38.2687C32.4005 38.2687 34.0517 37.8445 33.6397 36.9992C33.0904 36.1538 31.5765 36.0134 29.6539 37.5637C27.7313 39.114 32.1291 31.0848 36.3863 31.0848C37.0729 31.0848 37.3465 30.6637 37.3465 30.3799C37.3465 30.0991 37.2081 29.5345 35.5602 29.5345C33.9122 29.5345 31.4413 31.3656 30.48 33.0563C30.3427 33.157 30.2022 33.038 29.9275 32.8396C29.5155 32.4978 28.8299 31.9271 27.594 31.9271C25.534 31.9271 24.3013 32.3513 24.0266 32.4917C23.6146 32.4917 24.9879 30.5202 27.4598 30.5202C27.8718 30.5202 27.8718 29.8183 26.7732 29.1134C26.2239 28.6495 25.122 27.2182 24.1607 26.1287C23.7487 25.558 23.3378 25.0789 23.2005 24.8867C22.6511 24.3221 21.5514 26.437 20.7275 28.1276C20.5901 28.5488 20.3144 27.5631 20.3144 27.1419C20.3144 27.0046 20.1814 26.9252 19.9067 26.8215C19.3574 26.6017 18.3939 26.263 18.3939 25.027C18.3939 23.0556 19.9067 23.6202 20.5933 23.9009C21.4173 24.1817 22.2381 23.196 22.1008 22.3506C21.9634 21.5083 21.1384 20.5226 19.6277 20.663C18.2544 20.8034 16.4734 19.8176 16.4734 18.4077C16.4734 17.3762 17.0217 17.1748 17.4337 17.0314C17.571 16.9795 17.7094 16.9337 17.8467 16.8574C18.1214 16.5767 18.1182 15.7313 17.9809 15.4506C17.8435 15.1667 19.4926 16.2959 20.4539 17.5624C21.5525 18.6885 21.8282 18.9723 22.2402 18.6885C22.6522 18.4077 22.7874 17.5624 21.4141 16.4363C19.9035 15.3102 20.1781 13.9002 20.7275 13.0549C20.8648 12.9542 21.1416 12.9969 21.5536 13.0488C22.2402 13.1434 23.0653 13.2685 23.3399 12.6338C23.6146 11.5076 24.0266 14.7456 24.0266 16.2959C24.0266 17.422 24.3013 17.7028 24.7132 17.7028C25.1252 17.7028 25.5351 17.5624 25.2604 15.7313C24.9858 13.943 25.6746 13.6622 26.0865 13.5188C26.0865 13.5035 26.0865 13.4913 26.0865 13.4761C26.4985 13.3357 27.0446 13.3357 27.594 13.7599C28.0059 14.181 28.6937 13.476 28.6937 12.9145C28.6937 12.9145 29.3782 14.4648 28.5542 15.7313C28.2795 16.0304 28.0081 16.305 27.7334 16.5858C26.9095 17.5013 25.9481 18.4749 27.0468 20.5226L34.8735 28.5488C34.8735 28.5488 35.425 28.5488 35.013 27.9873C34.601 27.4227 34.7383 26.5773 35.013 26.2966C35.013 26.2966 37.6212 28.6892 42.8397 28.1276C48.1956 27.5631 50.2566 23.9009 49.4326 23.0556C49.4326 23.0556 47.2343 25.4512 44.8997 25.4512C42.7024 25.4512 41.4664 23.196 42.1531 21.6487C42.1531 21.6487 43.2485 22.9152 45.0338 22.9152C46.9564 22.9152 48.7449 20.8034 48.3329 19.6773C48.1956 19.3995 47.5057 19.5979 46.4071 19.9428C44.7591 20.4768 42.0125 21.3649 38.1673 21.3649C31.8501 21.3649 30.8888 15.1667 35.4207 12.4934C35.4207 12.4934 31.8533 19.6773 40.0931 19.6773C44.4877 19.6773 47.7804 18.4077 47.7804 18.4077C47.7804 18.4077 47.3716 16.1555 44.8997 16.1555C42.5651 16.1555 41.8795 18.5481 41.8795 18.5481C41.8795 18.5481 39.9547 17.2816 40.3667 15.3102C40.3667 15.0996 40.6414 15.0477 41.0534 14.9806C41.6027 14.8738 42.4267 14.7334 42.4267 13.7599C42.4267 13.1953 42.0168 13.1953 41.8795 13.1953C41.4675 13.1953 41.4643 13.4547 41.327 13.7232C41.1896 14.0162 41.0523 14.3214 40.6403 14.3214C39.8163 14.3214 39.8185 12.0692 41.4664 12.0692C41.4664 12.0692 42.8397 12.2126 42.8397 11.5077C42.8397 10.8027 45.0381 9.95735 49.4326 9.95735C53.6899 9.95735 54.9258 11.2238 54.9258 11.2238C54.9258 11.2238 55.3346 9.67658 57.1199 9.67658C59.0425 9.67658 59.1799 11.0834 59.1799 11.3673C59.1799 12.0081 58.9041 12.472 58.7668 12.7924C58.6295 12.9664 58.6327 13.0976 58.6327 13.1953C58.6327 13.2624 58.7689 13.5005 58.9063 13.8667C59.7302 15.0508 61.3793 17.5563 61.3793 19.8176C61.3793 22.7748 61.9265 26.2966 64.6731 29.1134C64.6731 29.1134 62.6163 28.8295 61.1057 27.2823C60.6937 26.9985 60.5542 33.6178 61.6529 35.5923C62.0649 36.0134 61.2398 35.8731 60.5532 35.0277C60.2785 34.7836 60.1433 34.5394 60.006 34.3197C59.594 33.7887 59.3172 33.4194 59.1799 33.6178V33.6331C58.9052 34.0176 56.9826 38.0368 59.1799 41.647C59.8665 42.4924 57.1231 41.3663 56.2991 39.6756C56.0245 39.1141 54.5128 44.4638 56.5727 48.6905C56.9847 49.5359 54.6512 47.7048 54.2392 46.9998C53.8272 46.2949 53.1373 47.8452 54.3733 50.2378C55.6093 52.7738 56.709 55.0291 57.533 55.8744C58.2196 56.4482 59.4567 57.089 60.6926 57.617C61.1046 57.8642 61.6518 58.087 61.9265 58.267C62.0638 58.3494 62.3417 58.4745 62.479 58.6271C63.9896 59.5457 67.0087 61.508 69.8927 61.508C73.3259 61.508 74.9728 59.1124 74.9728 57.9863C74.9728 57.9466 74.8376 57.913 74.4256 57.855C72.2284 57.4949 64.26 56.2101 64.26 46.9998C64.26 39.2544 72.4998 34.6066 72.4998 34.6066L74.152 36.4376C74.152 36.4376 66.8725 41.2259 66.8725 46.9998C66.8725 52.7738 72.0878 55.5906 75.2464 55.5906C75.2464 55.5906 77.0349 52.0689 69.6191 48.6905C69.6191 48.6905 73.327 47.7048 75.1123 50.662C75.6616 51.3669 75.9352 50.9427 76.0725 50.662C76.2098 50.3782 77.448 49.2551 78.9586 49.8166C78.9586 49.8166 76.4856 51.7881 77.8589 55.3099C77.8589 55.3099 84.0387 53.8999 84.0387 47.424C84.0387 42.7304 80.0572 39.3674 76.8986 36.7459C75.6627 35.7479 74.6992 34.8568 74.0126 34.042C73.3259 33.2638 72.6371 32.513 71.8131 31.7409C69.7532 29.5833 67.4186 27.2518 67.0066 23.6202C67.0066 23.6202 64.6731 22.9152 64.6731 19.8176C64.6731 16.717 68.2447 13.6195 68.5194 13.4761C68.6567 13.4364 68.5172 13.6988 68.3799 14.0864C68.1052 15.0263 67.6975 16.717 68.6588 16.717C69.8948 16.717 72.3625 13.7599 72.4998 13.1953C72.7745 12.6337 72.7787 14.7456 71.4054 16.5767C70.8561 17.2023 70.3047 17.7638 69.8927 18.2734C68.9314 19.2592 68.1095 20.0618 68.6588 20.8034C69.4828 21.9295 71.5406 19.958 71.9526 19.1127C72.3646 18.2673 71.5385 22.3506 69.0665 23.4767C69.0665 23.4767 67.6965 25.3078 75.7989 32.4917C79.6442 35.4489 81.29 37.1395 81.8393 37.7041C81.8393 37.7041 82.3918 37.4234 82.3918 36.2942C82.3918 35.1681 82.7995 34.042 83.4862 33.6178C83.4862 33.6178 82.6622 39.6756 84.1728 40.2371C84.7222 40.3805 84.8616 39.816 84.999 38.9737C85.1363 38.2687 85.6845 37.4234 85.9592 37.5637C85.9592 37.5637 84.7222 42.7731 86.2328 43.6185C86.3701 43.6673 86.5085 43.53 86.6459 43.356ZM43.8 36.4376C44.212 37.8445 43.8021 39.6756 42.5661 41.7874C42.4288 42.0712 42.4277 42.6328 42.8397 42.7731C42.9771 42.9135 43.1155 42.9135 43.2528 42.9135C43.5275 42.9135 43.8021 42.7731 43.9394 42.4924C45.3127 39.9594 45.9994 37.7041 45.3127 35.8731C44.9008 34.042 43.5264 33.337 43.5264 33.337C43.2517 33.1967 42.7035 33.1966 42.5661 33.6178C42.4288 34.042 42.5629 34.4631 42.7003 34.7469C42.7003 34.7469 43.5253 35.3085 43.8 36.4376ZM48.0593 28.973C47.922 29.3941 47.9209 29.8183 48.3329 29.9587C48.3329 29.9648 48.3329 29.9801 48.3329 30.0014C48.7449 30.3036 50.8049 31.9668 49.7062 36.8588C49.5689 37.283 49.8414 37.5637 50.2534 37.7041H50.3929C50.6675 37.7041 50.9422 37.4234 51.0795 37.1395C52.4528 31.2221 49.5689 29.1103 49.0196 28.7441C49.0196 28.7166 49.0196 28.6983 49.0196 28.6892C48.7449 28.5488 48.334 28.6892 48.0593 28.973ZM53.1395 29.9587C53.1395 30.3799 53.4131 30.6637 54.0997 30.6637C54.3744 30.6637 54.7864 30.3799 54.7864 29.9587C54.9237 27.1419 54.7874 25.5916 54.5128 24.6059C55.6114 24.6059 56.5706 24.4655 57.1199 23.9009C57.3946 23.6202 57.533 23.3363 57.533 22.9152C57.533 20.9438 53.6888 19.3934 52.4528 18.9723C51.9035 18.8319 51.4905 18.9723 51.3531 19.3934C51.2158 19.8176 51.3542 20.2388 51.7662 20.3792C53.9635 21.0841 55.8829 22.3506 56.0202 22.9152C55.7455 23.0556 55.2005 23.196 53.5525 23.196H53.2736C52.9989 23.196 52.7243 23.3363 52.5869 23.6202C52.4496 23.9009 52.5891 24.1817 52.7264 24.4655C52.7264 24.4655 53.5515 25.732 53.1395 29.9587ZM42.1531 49.1147C46.5476 46.9998 46.686 43.7589 46.686 43.7589C46.686 43.3377 46.4114 42.9166 45.9994 42.9166C45.4501 42.9166 45.0338 43.1973 45.0338 43.6185C45.0338 43.6185 44.8997 46.0141 41.4664 47.8452C41.1918 47.9856 41.0555 48.4098 41.1928 48.8309C41.3302 49.1147 41.6048 49.2551 41.8795 49.2551C41.8795 49.2551 42.0158 49.1147 42.1531 49.1147ZM39.8195 35.4519C40.2315 35.3085 40.2283 34.747 39.9537 34.4631C39.8163 34.042 39.2659 34.042 38.8539 34.1824C38.8539 34.1946 38.8539 34.2159 38.8539 34.2495C38.3046 34.6249 35.9722 36.4071 35.5602 40.8017C35.5602 41.2259 35.8348 41.647 36.2468 41.647H36.3863C36.661 41.647 37.0729 41.3663 37.0729 40.9421C37.4849 36.8588 39.6822 35.4519 39.8195 35.4519ZM49.5668 12.7741C49.5668 12.7741 50.3929 12.9145 50.3929 12.353C50.3929 11.7884 49.7062 11.7884 49.7062 11.7884H46.273C45.449 11.7884 45.4469 12.2126 45.4469 12.2126C45.4469 12.7741 45.9994 13.1953 45.9994 13.1953H47.9199C47.9199 13.1953 48.6065 13.058 48.6065 13.3357C48.6065 13.7599 46.4071 14.0406 46.4071 14.0406C46.6818 14.4648 46.9586 14.886 47.9199 14.886C49.5678 14.886 49.5668 12.7741 49.5668 12.7741ZM48.3329 48.9713C52.1782 46.9998 52.3166 43.3377 52.1792 43.1973C52.1792 42.7731 51.7651 42.4924 51.3531 42.4924C50.9411 42.4924 50.6665 42.7731 50.6665 43.1973C50.6665 43.3377 50.5302 46.1545 47.6463 47.7048C47.3716 47.8452 47.2354 48.2694 47.3727 48.6905C47.51 48.9713 47.7847 49.1147 48.0593 49.1147C48.0593 49.1147 48.1956 48.9713 48.3329 48.9713ZM42.5661 4.32376C42.5661 3.75918 42.1499 3.33803 41.6005 3.33803L41.0534 1.64734C42.152 1.78772 45.0338 3.05422 45.0338 4.32376C45.0338 5.59025 43.6605 5.73063 43.6605 5.73063C43.6605 7.42131 45.1733 7.42132 45.1733 7.42132H46.9596C48.1956 7.42132 48.0593 5.73063 48.0593 5.73063C48.0593 5.73063 46.4071 5.44986 46.4071 4.60452C46.4071 2.91383 49.1537 0.942383 49.1537 0.942383C49.1537 0.942383 52.1792 2.91383 52.1792 4.18337C52.1792 5.59024 50.2534 5.73063 50.2534 5.73063C50.6654 7.14055 52.1792 7.28093 52.1792 7.28093H53.6867C55.3346 7.28093 54.6469 5.59025 54.6469 5.59025C54.6469 5.59025 53.4131 5.44986 53.4131 4.46413C53.4131 2.63307 57.6724 1.78773 57.6724 1.78773L57.2594 3.33803C56.7101 3.33803 56.2991 3.75918 56.2991 4.32376C56.2991 4.60452 56.4343 4.88834 56.8463 5.02872L55.7466 8.97162H42.9738L42.0136 5.1691C42.2883 5.02872 42.5661 4.74491 42.5661 4.32376ZM49.2932 3.33803C48.7439 3.33803 48.3329 3.75918 48.3329 4.32376C48.3329 4.88834 48.7439 5.30948 49.2932 5.30948C49.8425 5.30948 50.2534 4.88834 50.2534 4.32376C50.2534 3.75918 49.8425 3.33803 49.2932 3.33803Z" fill="currentColor" />
</svg>
