<svg width="156" height="46" viewBox="0 0 156 46" fill="none" xmlns="http://www.w3.org/2000/svg">
<g clip-path="url(#clip0_11_118)">
<path d="M154.285 40.6744C154.285 41.2536 154.171 41.8271 153.949 42.3622C153.727 42.8972 153.402 43.3833 152.992 43.7927C152.582 44.202 152.096 44.5266 151.56 44.7478C151.025 44.969 150.451 45.0826 149.872 45.082H5.44358C4.27298 45.0832 3.14982 44.6196 2.32111 43.793C1.4924 42.9665 1.026 41.8447 1.02448 40.6744V5.52544C1.026 4.35462 1.49222 3.23226 2.32076 2.4048C3.14931 1.57734 4.27245 1.11241 5.44358 1.11211H149.871C150.45 1.11211 151.024 1.22627 151.56 1.44807C152.095 1.66988 152.582 1.99498 152.992 2.40481C153.402 2.81464 153.727 3.30117 153.949 3.83661C154.17 4.37206 154.284 4.94592 154.284 5.52544L154.285 40.6744Z" fill="white"/>
<path d="M149.872 46.1073H5.44359C4.00155 46.107 2.61852 45.5348 1.59798 44.5163C0.577437 43.4978 0.00274381 42.1161 0 40.6744L0 5.52658C0.00213329 4.08421 0.576448 2.70157 1.59696 1.68198C2.61746 0.662393 4.00083 0.089108 5.44359 0.0878906L149.871 0.0878906C151.313 0.0897155 152.696 0.663195 153.717 1.68265C154.737 2.70211 155.312 4.0844 155.314 5.52658V40.6744C155.317 43.6711 152.871 46.1073 149.872 46.1073Z" fill="#A6A6A6"/>
<path d="M154.285 40.6744C154.285 41.2536 154.171 41.8271 153.949 42.3622C153.727 42.8972 153.402 43.3833 152.992 43.7927C152.582 44.202 152.096 44.5266 151.56 44.7478C151.025 44.969 150.451 45.0826 149.872 45.082H5.44358C4.27298 45.0832 3.14982 44.6196 2.32111 43.793C1.4924 42.9665 1.026 41.8447 1.02448 40.6744V5.52544C1.026 4.35462 1.49222 3.23226 2.32076 2.4048C3.14931 1.57734 4.27245 1.11241 5.44358 1.11211H149.871C150.45 1.11211 151.024 1.22627 151.56 1.44807C152.095 1.66988 152.582 1.99498 152.992 2.40481C153.402 2.81464 153.727 3.30117 153.949 3.83661C154.17 4.37206 154.284 4.94592 154.284 5.52544L154.285 40.6744Z" fill="black"/>
<path d="M34.6806 22.8554C34.6472 19.1463 37.7183 17.3419 37.8588 17.2579C36.1195 14.7227 33.4236 14.3763 32.4762 14.3486C30.212 14.1104 28.0157 15.7031 26.8622 15.7031C25.6858 15.7031 23.9097 14.3717 21.9954 14.4108C19.532 14.4488 17.2275 15.8746 15.9636 18.0887C13.3551 22.6033 15.3005 29.2377 17.7996 32.8869C19.0497 34.6753 20.5104 36.6696 22.4224 36.5994C24.293 36.5235 24.9917 35.4083 27.249 35.4083C29.4856 35.4083 30.1417 36.5994 32.0917 36.5545C34.0993 36.5235 35.3632 34.7593 36.5695 32.956C38.0142 30.9087 38.5943 28.8902 38.6174 28.7866C38.5713 28.7705 34.7197 27.2998 34.6806 22.8554ZM30.997 11.9481C32.0031 10.6902 32.6915 8.97899 32.5004 7.24243C31.0442 7.30688 29.2232 8.24938 28.1745 9.47959C27.2467 10.5636 26.4179 12.3405 26.632 14.0115C28.2677 14.1334 29.9472 13.1863 30.997 11.9481Z" fill="white"/>
<path d="M149.872 0.0878906H72.5117L102.812 46.1073H149.872C151.314 46.1061 152.697 45.5332 153.718 44.5141C154.738 43.495 155.313 42.1129 155.316 40.671V5.52658C155.313 4.0843 154.739 2.70184 153.718 1.68232C152.698 0.662794 151.315 0.0894119 149.872 0.0878906Z" fill="url(#paint0_linear_11_118)"/>
<path d="M61.7742 36.3428H59.16L57.728 31.8443H52.7507L51.3866 36.3428H48.8415L53.774 21.0279H56.8198L61.7742 36.3428ZM57.2964 29.957L56.0014 25.9579C55.8644 25.5494 55.6066 24.5873 55.229 23.0729H55.1829C55.031 23.7242 54.7881 24.6863 54.4554 25.9579L53.1823 29.957H57.2964ZM74.4341 30.6854C74.4341 32.5635 73.9241 34.0481 72.9031 35.1379C71.9891 36.108 70.853 36.5925 69.4981 36.5925C68.0351 36.5925 66.9829 36.0712 66.3441 35.0263V40.8206H63.8899V28.9293C63.8899 27.7497 63.8588 26.5402 63.799 25.2997H65.9573L66.0943 27.0501H66.1403C66.9588 25.7312 68.2008 25.0718 69.8676 25.0718C71.1707 25.0718 72.2585 25.5862 73.1287 26.6162C73.9978 27.6485 74.4341 29.0041 74.4341 30.6854ZM71.9339 30.7752C71.9339 29.7004 71.6921 28.8142 71.2064 28.1157C70.6757 27.3895 69.9632 27.0259 69.0699 27.0259C68.4644 27.0259 67.9142 27.2284 67.4227 27.6278C66.93 28.0305 66.6077 28.5565 66.4569 29.2078C66.3896 29.4514 66.3513 29.7021 66.3429 29.9547V31.7971C66.3429 32.5992 66.5893 33.277 67.0819 33.8317C67.5746 34.3841 68.2146 34.6615 69.002 34.6615C69.9263 34.6615 70.6458 34.3036 71.1603 33.5935C71.676 32.8812 71.9339 31.9421 71.9339 30.7752ZM87.1388 30.6854C87.1388 32.5635 86.6289 34.0481 85.6079 35.1379C84.6927 36.108 83.5578 36.5925 82.2017 36.5925C80.7387 36.5925 79.6866 36.0712 79.0477 35.0263V40.8206H76.5935V28.9293C76.5935 27.7497 76.5625 26.5402 76.5026 25.2997H78.6609L78.7979 27.0501H78.844C79.6613 25.7312 80.9033 25.0718 82.5713 25.0718C83.8732 25.0718 84.9609 25.5862 85.8335 26.6162C86.7014 27.6485 87.1388 29.0041 87.1388 30.6854ZM84.6375 30.7752C84.6375 29.7004 84.3946 28.8142 83.9088 28.1157C83.3782 27.3895 82.6679 27.0259 81.7747 27.0259C81.1692 27.0259 80.619 27.2284 80.1251 27.6278C79.6325 28.0305 79.3113 28.5565 79.1605 29.2078C79.0857 29.5116 79.0454 29.759 79.0454 29.9547V31.7971C79.0454 32.5992 79.2929 33.277 79.7833 33.8317C80.2759 34.383 80.916 34.6615 81.7056 34.6615C82.6311 34.6615 83.3506 34.3036 83.8639 33.5935C84.3796 32.8812 84.6375 31.9421 84.6375 30.7752ZM101.344 32.0468C101.344 33.3507 100.888 34.4106 99.9818 35.2288C98.9849 36.1218 97.5932 36.5695 95.809 36.5695C94.1606 36.5695 92.8391 36.2519 91.8423 35.6155L92.4098 33.5705C93.4861 34.208 94.6682 34.5257 95.9552 34.5257C96.8807 34.5257 97.6001 34.3162 98.1135 33.9008C98.6281 33.4842 98.8882 32.9272 98.8882 32.2321C98.8882 31.6095 98.6729 31.0882 98.2505 30.6636C97.8257 30.2401 97.1235 29.8454 96.1371 29.4828C93.455 28.4828 92.1128 27.0201 92.1128 25.096C92.1128 23.8393 92.587 22.8105 93.5332 22.0061C94.4795 21.2028 95.7342 20.8012 97.2951 20.8012C98.6891 20.8012 99.8505 21.044 100.773 21.5285L100.157 23.5286C99.2888 23.0591 98.3092 22.8243 97.2133 22.8243C96.3477 22.8243 95.6686 23.0372 95.1828 23.4607C94.7741 23.8393 94.5669 24.3008 94.5669 24.8486C94.5669 25.4527 94.8029 25.9545 95.2726 26.3481C95.6801 26.7106 96.4237 27.1053 97.4988 27.5288C98.818 28.0605 99.7872 28.6796 100.408 29.3908C101.033 30.102 101.344 30.9893 101.344 32.0468ZM109.478 27.141H106.773V32.5026C106.773 33.8663 107.25 34.5464 108.205 34.5464C108.644 34.5464 109.008 34.5096 109.295 34.4325L109.363 36.2956C108.88 36.4763 108.243 36.5672 107.455 36.5672C106.486 36.5672 105.728 36.2714 105.181 35.6799C104.637 35.0884 104.363 34.0976 104.363 32.7028V27.1364H102.751V25.2951H104.363V23.2731L106.773 22.5458V25.2951H109.478V27.141ZM121.659 30.7303C121.659 32.4278 121.174 33.8214 120.204 34.9112C119.19 36.0332 117.841 36.5925 116.159 36.5925C114.536 36.5925 113.246 36.0551 112.284 34.9814C111.321 33.9054 110.84 32.5497 110.84 30.9144C110.84 29.2032 111.337 27.8015 112.329 26.7117C113.322 25.6208 114.66 25.0753 116.341 25.0753C117.962 25.0753 119.264 25.6138 120.249 26.6887C121.191 27.7313 121.659 29.0778 121.659 30.7303ZM119.115 30.7867C119.115 29.7752 118.897 28.9074 118.458 28.1813C117.944 27.3044 117.207 26.8659 116.253 26.8659C115.27 26.8659 114.516 27.3044 114.002 28.1813C113.563 28.9074 113.344 29.7901 113.344 30.8327C113.344 31.8454 113.563 32.7155 114.002 33.4393C114.533 34.3162 115.273 34.7547 116.232 34.7547C117.17 34.7547 117.906 34.307 118.437 33.4174C118.889 32.674 119.115 31.8006 119.115 30.7867ZM129.64 27.4574C129.385 27.4114 129.126 27.3886 128.866 27.3895C128.003 27.3895 127.336 27.7141 126.866 28.3677C126.458 28.9431 126.253 29.6704 126.253 30.5485V36.3428H123.799V28.7774C123.802 27.6182 123.778 26.459 123.728 25.3008H125.866L125.955 27.4137H126.023C126.283 26.6876 126.691 26.1018 127.25 25.6633C127.762 25.2802 128.385 25.0727 129.024 25.0718C129.251 25.0718 129.456 25.0879 129.638 25.1167L129.64 27.4574ZM140.616 30.2988C140.622 30.6717 140.592 31.0444 140.526 31.4116H133.164C133.191 32.5026 133.548 33.338 134.232 33.9134C134.852 34.4267 135.655 34.6845 136.64 34.6845C137.73 34.6845 138.725 34.5119 139.619 34.1632L140.003 35.8652C138.958 36.3209 137.724 36.5476 136.3 36.5476C134.587 36.5476 133.243 36.0436 132.265 35.0378C131.288 34.0308 130.799 32.6775 130.799 30.9823C130.799 29.3183 131.254 27.9316 132.164 26.8256C133.118 25.6449 134.406 25.0546 136.026 25.0546C137.618 25.0546 138.824 25.6449 139.642 26.8256C140.29 27.7612 140.616 28.9213 140.616 30.2988ZM138.276 29.6624C138.293 28.9339 138.132 28.3067 137.799 27.7762C137.374 27.0926 136.721 26.752 135.845 26.752C135.042 26.752 134.388 27.0846 133.891 27.752C133.482 28.2826 133.24 28.9201 133.165 29.6601L138.276 29.6624Z" fill="white"/>
<path d="M51.0597 13.8338C51.1498 14.4852 51.7884 14.899 52.7096 14.899C53.5678 14.899 54.1973 14.4571 54.1973 13.8484C54.1973 13.3251 53.7963 13.0112 52.8852 12.7973L51.9989 12.5834C50.7545 12.2931 50.1869 11.6939 50.1869 10.686C50.1869 9.46354 51.1881 8.65053 52.6904 8.65053C53.2808 8.58485 53.8733 8.75515 54.3381 9.12414C54.8029 9.49314 55.1021 10.0307 55.1703 10.6192H54.1297C54.0612 10.2971 53.8736 10.0125 53.6042 9.82224C53.3347 9.63184 53.0033 9.54974 52.6758 9.59214C51.8312 9.59214 51.2692 9.99644 51.2692 10.6146C51.2692 11.1043 51.6319 11.385 52.5283 11.5939L53.2863 11.7798C54.6974 12.1077 55.2796 12.6782 55.2796 13.7103C55.2796 15.0226 54.2593 15.8452 52.6286 15.8452C51.1026 15.8452 50.0766 15.0608 50 13.8339L51.0597 13.8338Z" fill="white"/>
<path d="M58.095 9.21095V10.5237H59.2201V11.3846H58.095V14.0473C58.095 14.5897 58.3191 14.8273 58.8293 14.8273C58.9599 14.8268 59.0903 14.819 59.2201 14.8037V15.6549C59.036 15.6878 58.8495 15.7052 58.6626 15.7072C57.5229 15.7072 57.069 15.3073 57.069 14.309V11.3845H56.2446V10.5237H57.069V9.21095H58.095Z" fill="white"/>
<path d="M60.2766 14.2155C60.2766 13.2833 60.9726 12.746 62.208 12.6696L63.6147 12.5887V12.1418C63.6147 11.5948 63.252 11.286 62.5515 11.286C61.9794 11.286 61.583 11.4954 61.4693 11.8616H60.4771C60.5818 10.9721 61.4208 10.4016 62.5988 10.4016C63.9007 10.4016 64.635 11.0479 64.635 12.1418V15.6799H63.6485V14.9522H63.5674C63.4028 15.2132 63.1717 15.426 62.8976 15.5689C62.6236 15.7117 62.3165 15.7795 62.0076 15.7652C61.7896 15.7878 61.5693 15.7647 61.3608 15.6972C61.1523 15.6297 60.9604 15.5193 60.7973 15.3733C60.6342 15.2273 60.5036 15.0488 60.4139 14.8494C60.3242 14.65 60.2775 14.434 60.2766 14.2155ZM63.6147 13.773V13.34L62.3466 13.4209C61.6314 13.4686 61.3071 13.7112 61.3071 14.1677C61.3071 14.6338 61.7125 14.905 62.27 14.905C62.4334 14.9215 62.5984 14.905 62.7552 14.8566C62.9121 14.8082 63.0576 14.7289 63.183 14.6232C63.3085 14.5176 63.4113 14.3879 63.4855 14.2419C63.5596 14.0958 63.6036 13.9363 63.6147 13.773ZM61.9839 9.63574L63.1811 8H64.3828L63.0426 9.63574H61.9839Z" fill="white"/>
<path d="M66.2872 8.48046H67.303V11.3341H67.3841C67.5203 11.0359 67.7455 10.7868 68.0288 10.6208C68.3121 10.4548 68.6399 10.3799 68.9675 10.4065C69.2188 10.3928 69.4701 10.4347 69.7034 10.529C69.9367 10.6234 70.1462 10.7679 70.317 10.9523C70.4878 11.1367 70.6157 11.3564 70.6916 11.5957C70.7674 11.8351 70.7894 12.0882 70.7559 12.337V15.6803H69.7299V12.5891C69.7299 11.762 69.3436 11.3431 68.6195 11.3431C68.4433 11.3287 68.2662 11.3528 68.1003 11.4138C67.9345 11.4748 67.7841 11.5712 67.6596 11.6963C67.535 11.8213 67.4394 11.972 67.3793 12.1378C67.3193 12.3035 67.2963 12.4804 67.312 12.6559V15.6803H66.2871L66.2872 8.48046Z" fill="white"/>
<path d="M72.3403 10.5035H73.3269V11.3261H73.4035C73.5334 11.0306 73.7525 10.7829 74.0303 10.6176C74.3081 10.4522 74.6307 10.3774 74.9531 10.4035C75.2058 10.3845 75.4595 10.4225 75.6954 10.5146C75.9314 10.6068 76.1435 10.7506 76.3162 10.9356C76.4888 11.1206 76.6174 11.3419 76.6926 11.5832C76.7678 11.8245 76.7876 12.0796 76.7505 12.3295V15.6818H75.7257V12.5861C75.7257 11.754 75.3631 11.3401 74.6051 11.3401C74.4336 11.3322 74.2623 11.3613 74.1031 11.4255C73.9439 11.4897 73.8005 11.5875 73.6827 11.7121C73.5649 11.8367 73.4756 11.9853 73.4208 12.1476C73.366 12.3099 73.347 12.4821 73.3652 12.6524V15.6818H72.3403V10.5035Z" fill="white"/>
<path d="M78.0785 13.0891C78.0458 12.7488 78.0849 12.4055 78.1931 12.0811C78.3013 11.7567 78.4763 11.4585 78.7069 11.2055C78.9375 10.9525 79.2185 10.7504 79.532 10.6121C79.8455 10.4737 80.1846 10.4023 80.5274 10.4023C80.8702 10.4023 81.2093 10.4737 81.5228 10.6121C81.8363 10.7504 82.1173 10.9525 82.3479 11.2055C82.5785 11.4585 82.7535 11.7567 82.8617 12.0811C82.9699 12.4055 83.009 12.7488 82.9763 13.0891C83.0096 13.4298 82.971 13.7736 82.8631 14.0985C82.7551 14.4234 82.5802 14.7222 82.3496 14.9757C82.119 15.2292 81.8377 15.4317 81.5239 15.5703C81.2101 15.709 80.8706 15.7806 80.5274 15.7806C80.1842 15.7806 79.8447 15.709 79.5309 15.5703C79.2171 15.4317 78.9358 15.2292 78.7052 14.9757C78.4746 14.7222 78.2997 14.4234 78.1917 14.0985C78.0838 13.7736 78.0452 13.4298 78.0785 13.0891ZM81.9222 13.0891C81.9222 11.9667 81.4165 11.3102 80.5291 11.3102C79.6383 11.3102 79.1371 11.9667 79.1371 13.0891C79.1371 14.2206 79.6383 14.872 80.5291 14.872C81.4165 14.872 81.9222 14.2161 81.9222 13.0891Z" fill="white"/>
<path d="M88.7295 15.6783H87.7418V14.8557H87.6607C87.5294 15.1542 87.3073 15.404 87.0257 15.5696C86.7441 15.7352 86.4174 15.8082 86.0919 15.7783C85.8408 15.796 85.5888 15.7575 85.3546 15.6655C85.1203 15.5735 84.9097 15.4303 84.7382 15.2465C84.5667 15.0627 84.4386 14.8429 84.3634 14.6033C84.2882 14.3637 84.2677 14.1103 84.3035 13.8618V10.5H85.3295V13.5956C85.3295 14.4323 85.6674 14.8321 86.4208 14.8321C86.5955 14.8486 86.7716 14.8261 86.9365 14.7661C87.1013 14.7061 87.2506 14.6101 87.3735 14.4852C87.4965 14.3603 87.5899 14.2097 87.6469 14.0442C87.704 13.8788 87.7234 13.7027 87.7035 13.5288V10.5H88.7295V15.6783Z" fill="white"/>
<path d="M91.75 9.21095V10.5237H92.8751V11.3846H91.75V14.0473C91.75 14.5897 91.9741 14.8273 92.4843 14.8273C92.6149 14.8268 92.7454 14.819 92.8751 14.8037V15.6549C92.691 15.6878 92.5046 15.7053 92.3176 15.7072C91.1779 15.7072 90.724 15.3073 90.724 14.309V11.3845H89.8997V10.5237H90.724V9.21095H91.75Z" fill="white"/>
<path d="M99.5714 15.6783H98.4699L96.5959 10.5H97.6917L98.9846 14.5845H99.0657L100.353 10.5H101.441L99.5714 15.6783Z" fill="white"/>
</g>
<defs>
<linearGradient id="paint0_linear_11_118" x1="113.912" y1="46.2295" x2="113.912" y2="-119.739" gradientUnits="userSpaceOnUse">
<stop stop-color="#1A1A1A" stop-opacity="0.1"/>
<stop offset="0.123" stop-color="#212121" stop-opacity="0.151"/>
<stop offset="0.308" stop-color="#353535" stop-opacity="0.227"/>
<stop offset="0.532" stop-color="#575757" stop-opacity="0.318"/>
<stop offset="0.783" stop-color="#858585" stop-opacity="0.421"/>
<stop offset="1" stop-color="#B3B3B3" stop-opacity="0.51"/>
</linearGradient>
<clipPath id="clip0_11_118">
<rect width="155.274" height="46" fill="white"/>
</clipPath>
</defs>
</svg>
