<svg version="1.1" width="100%" height="100%" viewBox="0 0 1049.3066 294.49332" xmlns="http://www.w3.org/2000/svg" xmlns:svg="http://www.w3.org/2000/svg">
  <g transform="matrix(1.3333333,0,0,-1.3333333,0,294.49333)">
    <g transform="scale(0.1)">
      <path d="M 2995.08,158.281 H 159.055 V 2048.98 H 2995.08 Z M 102.336,2103.9 V 101.059 H 3051.79 V 2103.9 H 102.336"
         style="fill:#dddddd;fill-opacity:1;fill-rule:nonzero;stroke:none"/>
      <path d="m 1516.64,1637.02 59.84,43.67 59.85,-43.67 -22.78,70.63 60.79,43.67 h -74.93 l -22.93,71.48 -22.93,-71.56 -74.88,0.08 60.74,-43.67 -22.77,-70.63"
         style="fill:#dddddd;fill-opacity:1;fill-rule:nonzero;stroke:none"/>
      <path d="m 1206.95,1553.82 59.84,43.67 59.81,-43.67 -22.74,70.63 60.75,43.67 h -74.93 l -22.92,71.56 -22.93,-71.64 -74.89,0.08 60.74,-43.67 -22.73,-70.63"
         style="fill:#dddddd;fill-opacity:1;fill-rule:nonzero;stroke:none"/>
      <path d="m 1040.19,1512.57 -22.93,-71.64 -74.881,0.08 60.741,-43.67 -22.772,-70.63 59.842,43.67 59.84,-43.67 -22.77,70.63 60.74,43.67 h -74.88 l -22.93,71.56"
         style="fill:#dddddd;fill-opacity:1;fill-rule:nonzero;stroke:none"/>
      <path d="m 957.066,1061.08 59.814,-43.67 -22.743,70.62 60.743,43.68 h -74.884 l -22.93,71.56 -22.929,-71.72 -74.918,0.16 60.777,-43.68 -22.769,-70.62 59.839,43.67"
         style="fill:#dddddd;fill-opacity:1;fill-rule:nonzero;stroke:none"/>
      <path d="m 1063.12,821.48 -22.93,71.559 -22.93,-71.641 -74.881,0.082 60.741,-43.671 -22.772,-70.629 59.842,43.75 59.84,-43.75 -22.77,70.629 60.74,43.671 h -74.88"
         style="fill:#dddddd;fill-opacity:1;fill-rule:nonzero;stroke:none"/>
      <path d="m 1290.15,594.449 -22.93,71.481 -22.89,-71.559 -74.92,0.078 60.74,-43.668 -22.73,-70.633 59.84,43.672 59.8,-43.672 -22.73,70.633 60.74,43.668 h -74.92"
         style="fill:#dddddd;fill-opacity:1;fill-rule:nonzero;stroke:none"/>
      <path d="m 1599.45,512.18 -22.93,71.558 -22.89,-71.636 -74.92,0.078 60.74,-43.668 -22.73,-70.633 59.84,43.672 59.8,-43.672 -22.77,70.633 60.78,43.668 h -74.92"
         style="fill:#dddddd;fill-opacity:1;fill-rule:nonzero;stroke:none"/>
      <path d="m 1908.75,594.449 -22.89,71.481 -22.97,-71.559 -74.84,0.078 60.7,-43.668 -22.73,-70.633 59.84,43.672 59.84,-43.672 -22.81,70.633 60.78,43.668 h -74.92"
         style="fill:#dddddd;fill-opacity:1;fill-rule:nonzero;stroke:none"/>
      <path d="m 2135.86,821.48 -22.97,71.559 -22.97,-71.641 -74.84,0.082 60.78,-43.671 -22.81,-70.629 59.84,43.75 59.84,-43.75 -22.81,70.629 60.78,43.671 h -74.84"
         style="fill:#dddddd;fill-opacity:1;fill-rule:nonzero;stroke:none"/>
      <path d="m 2292.97,1132.57 h -74.92 l -22.97,71.56 -22.89,-71.64 -74.92,0.08 60.78,-43.67 -22.74,-70.63 59.77,43.75 59.84,-43.75 -22.73,70.63 60.78,43.67"
         style="fill:#dddddd;fill-opacity:1;fill-rule:nonzero;stroke:none"/>
      <path d="m 2053.04,1327.65 59.84,43.67 59.85,-43.67 -22.81,70.63 60.78,43.59 h -74.85 l -22.97,71.56 -22.96,-71.64 -74.85,0.08 60.78,-43.59 -22.81,-70.63"
         style="fill:#dddddd;fill-opacity:1;fill-rule:nonzero;stroke:none"/>
      <path d="m 1886.72,1739.6 -22.89,-71.64 -74.92,0.16 60.7,-43.75 -22.73,-70.63 59.92,43.75 59.76,-43.75 -22.73,70.63 60.78,43.75 h -75 l -22.89,71.48"
         style="fill:#dddddd;fill-opacity:1;fill-rule:nonzero;stroke:none"/>
      <g transform="scale(10)">
        <text xml:space="preserve" transform="matrix(1,0,0,-1,330.686,15.8941)"
           style="font-variant:normal;font-weight:normal;font-size:51px;font-family:Arial;-inkscape-font-specification:ArialMT;writing-mode:lr-tb;fill:#dddddd;fill-opacity:1;fill-rule:nonzero;stroke:none">
					 <tspan x="0 36.831108 65.194405 90.694405 104.8643 144.53322 172.89752 201.26079 229.62411 246.60849 274.97177 289.14169 300.47177 328.83508 357.1994 391.2164" y="0">NextGenerationEU</tspan></text>
      </g>
      <path d="m 3343.48,1628.27 v 422.34 h 289.53 v -71.45 h -204.26 v -99.97 h 176.31 v -71.44 h -176.31 v -179.48 h -85.27"
         style="fill:#dddddd;fill-opacity:1;fill-rule:nonzero;stroke:none"/>
      <path d="m 3702.72,1628.27 v 305.95 h 80.95 v -305.95 z m 0,347.43 v 74.91 h 80.95 v -74.91 h -80.95"
         style="fill:#dddddd;fill-opacity:1;fill-rule:nonzero;stroke:none"/>
      <path d="m 4144.94,1628.27 h -80.95 v 156.14 c 0,33.04 -1.73,54.4 -5.19,64.11 -3.46,9.69 -9.07,17.23 -16.85,22.61 -7.78,5.37 -17.14,8.06 -28.09,8.06 -14.02,0 -26.6,-3.84 -37.74,-11.52 -11.14,-7.69 -18.77,-17.86 -22.9,-30.54 -4.14,-12.67 -6.2,-36.11 -6.2,-70.29 v -138.57 h -80.94 v 305.95 h 75.18 v -44.95 c 26.69,34.58 60.3,51.86 100.83,51.86 17.86,0 34.18,-3.22 48.98,-9.65 14.78,-6.44 25.97,-14.64 33.56,-24.63 7.58,-9.99 12.86,-21.32 15.84,-33.99 2.98,-12.68 4.47,-30.83 4.47,-54.45 v -190.14"
         style="fill:#dddddd;fill-opacity:1;fill-rule:nonzero;stroke:none"/>
      <path d="m 4395.86,1775.19 c -10.37,-3.46 -26.8,-7.58 -49.27,-12.39 -22.47,-4.8 -37.15,-9.5 -44.07,-14.11 -10.56,-7.49 -15.85,-17 -15.85,-28.52 0,-11.33 4.22,-21.13 12.68,-29.38 8.45,-8.27 19.2,-12.39 32.26,-12.39 14.59,0 28.53,4.8 41.77,14.4 9.81,7.3 16.23,16.23 19.31,26.79 2.11,6.92 3.17,20.07 3.17,39.47 z m -108.32,65.69 -73.47,13.25 c 8.26,29.57 22.48,51.47 42.64,65.68 20.17,14.21 50.13,21.32 89.88,21.32 36.11,0 62.99,-4.27 80.67,-12.82 17.66,-8.54 30.11,-19.4 37.3,-32.55 7.21,-13.16 10.81,-37.31 10.81,-72.46 l -0.87,-94.49 c 0,-26.89 1.3,-46.72 3.89,-59.49 2.6,-12.77 7.44,-26.46 14.55,-41.05 h -80.09 c -2.12,5.37 -4.7,13.34 -7.77,23.91 -1.35,4.8 -2.3,7.97 -2.89,9.51 -13.83,-13.45 -28.61,-23.53 -44.36,-30.25 -15.75,-6.72 -32.55,-10.08 -50.42,-10.08 -31.5,0 -56.31,8.54 -74.47,25.64 -18.14,17.09 -27.22,38.69 -27.22,64.81 0,17.29 4.13,32.7 12.39,46.24 8.25,13.54 19.82,23.91 34.71,31.12 14.89,7.19 36.34,13.48 64.39,18.87 37.83,7.1 64.05,13.73 78.65,19.87 v 8.07 c 0,15.56 -3.85,26.65 -11.52,33.28 -7.69,6.62 -22.19,9.93 -43.51,9.93 -14.4,0 -25.63,-2.83 -33.7,-8.5 -8.07,-5.66 -14.6,-15.6 -19.59,-29.81"
         style="fill:#dddddd;fill-opacity:1;fill-rule:nonzero;stroke:none"/>
      <path d="m 4833.47,1628.27 h -80.96 v 156.14 c 0,33.04 -1.73,54.4 -5.18,64.11 -3.46,9.69 -9.08,17.23 -16.86,22.61 -7.77,5.37 -17.14,8.06 -28.09,8.06 -14.02,0 -26.6,-3.84 -37.74,-11.52 -11.13,-7.69 -18.77,-17.86 -22.9,-30.54 -4.13,-12.67 -6.19,-36.11 -6.19,-70.29 v -138.57 h -80.95 v 305.95 h 75.19 v -44.95 c 26.69,34.58 60.3,51.86 100.83,51.86 17.86,0 34.18,-3.22 48.97,-9.65 14.79,-6.44 25.98,-14.64 33.57,-24.63 7.57,-9.99 12.86,-21.32 15.84,-33.99 2.97,-12.68 4.47,-30.83 4.47,-54.45 v -190.14"
         style="fill:#dddddd;fill-opacity:1;fill-rule:nonzero;stroke:none"/>
      <path d="m 5182.35,1843.76 -79.81,-14.4 c -2.69,15.93 -8.79,27.94 -18.29,36 -9.51,8.07 -21.86,12.1 -37.02,12.1 -20.17,0 -36.25,-6.96 -48.25,-20.88 -12.01,-13.93 -18.01,-37.22 -18.01,-69.86 0,-36.3 6.09,-61.94 18.29,-76.92 12.2,-14.98 28.56,-22.47 49.12,-22.47 15.36,0 27.95,4.36 37.74,13.11 9.8,8.73 16.71,23.76 20.74,45.08 l 79.51,-13.54 c -8.25,-36.5 -24.1,-64.05 -47.53,-82.68 -23.44,-18.63 -54.83,-27.94 -94.21,-27.94 -44.75,0 -80.42,14.11 -107.02,42.34 -26.6,28.24 -39.89,67.32 -39.89,117.25 0,50.51 13.34,89.84 40.04,117.98 26.69,28.13 62.8,42.2 108.32,42.2 37.25,0 66.88,-8.02 88.87,-24.05 21.99,-16.04 37.79,-40.48 47.4,-73.32"
         style="fill:#dddddd;fill-opacity:1;fill-rule:nonzero;stroke:none"/>
      <path d="m 5307.94,1781.24 c 0,-30.34 7.2,-53.58 21.61,-69.71 14.4,-16.14 32.16,-24.2 53.29,-24.2 21.13,0 38.84,8.06 53.16,24.2 14.3,16.13 21.46,39.56 21.46,70.29 0,29.96 -7.16,53.01 -21.46,69.14 -14.32,16.13 -32.03,24.2 -53.16,24.2 -21.13,0 -38.89,-8.07 -53.29,-24.2 -14.41,-16.13 -21.61,-39.37 -21.61,-69.72 z m -82.97,4.32 c 0,26.89 6.63,52.92 19.88,78.08 13.26,25.15 32.03,44.36 56.32,57.61 24.29,13.25 51.43,19.88 81.39,19.88 46.28,0 84.21,-15.03 113.79,-45.09 29.57,-30.06 44.36,-68.03 44.36,-113.93 0,-46.29 -14.93,-84.66 -44.79,-115.09 -29.87,-30.45 -67.46,-45.66 -112.79,-45.66 -28.04,0 -54.79,6.33 -80.23,19.01 -25.45,12.68 -44.79,31.26 -58.05,55.74 -13.25,24.5 -19.88,54.31 -19.88,89.45"
         style="fill:#dddddd;fill-opacity:1;fill-rule:nonzero;stroke:none"/>
      <path d="m 5688.2,1628.27 -123.3,305.95 h 84.99 l 57.62,-156.15 16.71,-52.14 c 4.41,13.25 7.21,21.99 8.36,26.22 2.69,8.64 5.57,17.28 8.63,25.92 l 58.21,156.15 h 83.25 L 5761.1,1628.27 h -72.9"
         style="fill:#dddddd;fill-opacity:1;fill-rule:nonzero;stroke:none"/>
      <path d="m 6013.47,1971.67 39.74,86.13 h 90.76 l -79.23,-86.13 z m 87.58,-196.48 c -10.37,-3.46 -26.8,-7.58 -49.27,-12.39 -22.47,-4.8 -37.16,-9.5 -44.07,-14.11 -10.57,-7.49 -15.85,-17 -15.85,-28.52 0,-11.33 4.22,-21.13 12.67,-29.38 8.45,-8.27 19.2,-12.39 32.27,-12.39 14.59,0 28.52,4.8 41.77,14.4 9.8,7.3 16.23,16.23 19.3,26.79 2.11,6.92 3.18,20.07 3.18,39.47 z m -108.32,65.69 -73.47,13.25 c 8.25,29.57 22.47,51.47 42.64,65.68 20.16,14.21 50.12,21.32 89.88,21.32 36.1,0 62.99,-4.27 80.66,-12.82 17.67,-8.54 30.11,-19.4 37.31,-32.55 7.2,-13.16 10.81,-37.31 10.81,-72.46 l -0.87,-94.49 c 0,-26.89 1.3,-46.72 3.89,-59.49 2.59,-12.77 7.44,-26.46 14.55,-41.05 h -80.09 c -2.12,5.37 -4.71,13.34 -7.77,23.91 -1.35,4.8 -2.31,7.97 -2.9,9.51 -13.82,-13.45 -28.61,-23.53 -44.35,-30.25 -15.75,-6.72 -32.56,-10.08 -50.42,-10.08 -31.5,0 -56.32,8.54 -74.47,25.64 -18.15,17.09 -27.22,38.69 -27.22,64.81 0,17.29 4.12,32.7 12.38,46.24 8.25,13.54 19.83,23.91 34.72,31.12 14.88,7.19 36.34,13.48 64.38,18.87 37.84,7.1 64.06,13.73 78.66,19.87 v 8.07 c 0,15.56 -3.85,26.65 -11.53,33.28 -7.68,6.62 -22.18,9.93 -43.5,9.93 -14.41,0 -25.64,-2.83 -33.7,-8.5 -8.07,-5.66 -14.6,-15.6 -19.59,-29.81"
         style="fill:#dddddd;fill-opacity:1;fill-rule:nonzero;stroke:none"/>
      <path d="m 6538.65,1628.27 h -80.95 v 156.14 c 0,33.04 -1.73,54.4 -5.19,64.11 -3.46,9.69 -9.07,17.23 -16.85,22.61 -7.78,5.37 -17.14,8.06 -28.09,8.06 -14.02,0 -26.6,-3.84 -37.74,-11.52 -11.14,-7.69 -18.77,-17.86 -22.9,-30.54 -4.14,-12.67 -6.2,-36.11 -6.2,-70.29 v -138.57 h -80.94 v 305.95 h 75.18 v -44.95 c 26.69,34.58 60.31,51.86 100.83,51.86 17.86,0 34.18,-3.22 48.98,-9.65 14.78,-6.44 25.97,-14.64 33.56,-24.63 7.58,-9.99 12.86,-21.32 15.84,-33.99 2.98,-12.68 4.47,-30.83 4.47,-54.45 v -190.14"
         style="fill:#dddddd;fill-opacity:1;fill-rule:nonzero;stroke:none"/>
      <path d="m 6684.99,1781.24 c 0,-30.34 7.2,-53.58 21.61,-69.71 14.4,-16.14 32.16,-24.2 53.29,-24.2 21.13,0 38.84,8.06 53.16,24.2 14.31,16.13 21.46,39.56 21.46,70.29 0,29.96 -7.15,53.01 -21.46,69.14 -14.32,16.13 -32.03,24.2 -53.16,24.2 -21.13,0 -38.89,-8.07 -53.29,-24.2 -14.41,-16.13 -21.61,-39.37 -21.61,-69.72 z m -82.97,4.32 c 0,26.89 6.63,52.92 19.88,78.08 13.26,25.15 32.03,44.36 56.32,57.61 24.29,13.25 51.43,19.88 81.39,19.88 46.28,0 84.21,-15.03 113.79,-45.09 29.57,-30.06 44.37,-68.03 44.37,-113.93 0,-46.29 -14.94,-84.66 -44.8,-115.09 -29.87,-30.45 -67.46,-45.66 -112.79,-45.66 -28.04,0 -54.79,6.33 -80.23,19.01 -25.45,12.68 -44.79,31.26 -58.05,55.74 -13.25,24.5 -19.88,54.31 -19.88,89.45"
         style="fill:#dddddd;fill-opacity:1;fill-rule:nonzero;stroke:none"/>
      <path d="m 3342.91,920.27 v 422.34 h 313.15 v -71.45 h -227.87 v -93.63 h 212.03 v -71.15 H 3428.19 V 991.43 h 235.93 v -71.16 h -321.21"
         style="fill:#dddddd;fill-opacity:1;fill-rule:nonzero;stroke:none"/>
      <path d="m 3819.97,920.27 -123.3,305.95 h 84.99 l 57.62,-156.14 16.71,-52.14 c 4.41,13.25 7.21,21.98 8.36,26.21 2.68,8.64 5.56,17.28 8.63,25.93 l 58.2,156.14 h 83.26 L 3892.86,920.27 h -72.89"
         style="fill:#dddddd;fill-opacity:1;fill-rule:nonzero;stroke:none"/>
      <path d="m 4141.49,920.27 h -80.96 v 305.95 h 75.19 v -43.5 c 12.87,20.54 24.44,34.08 34.72,40.62 10.28,6.53 21.94,9.79 35,9.79 18.44,0 36.2,-5.09 53.29,-15.27 l -25.06,-70.58 c -13.64,8.84 -26.31,13.26 -38.02,13.26 -11.34,0 -20.94,-3.13 -28.81,-9.37 -7.88,-6.24 -14.07,-17.52 -18.59,-33.85 -4.51,-16.33 -6.76,-50.51 -6.76,-102.56 v -94.49"
         style="fill:#dddddd;fill-opacity:1;fill-rule:nonzero;stroke:none"/>
      <path d="m 4357.83,1073.25 c 0,-30.35 7.2,-53.58 21.62,-69.72 14.39,-16.132 32.15,-24.202 53.29,-24.202 21.12,0 38.83,8.07 53.15,24.202 14.31,16.14 21.47,39.56 21.47,70.29 0,29.96 -7.16,53.01 -21.47,69.14 -14.32,16.13 -32.03,24.2 -53.15,24.2 -21.14,0 -38.9,-8.07 -53.29,-24.2 -14.42,-16.13 -21.62,-39.37 -21.62,-69.71 z m -82.96,4.32 c 0,26.88 6.63,52.91 19.87,78.07 13.26,25.15 32.03,44.36 56.33,57.61 24.28,13.26 51.42,19.88 81.38,19.88 46.28,0 84.21,-15.02 113.79,-45.09 29.57,-30.05 44.37,-68.03 44.37,-113.93 0,-46.29 -14.93,-84.649 -44.8,-115.09 -29.87,-30.442 -67.46,-45.661 -112.79,-45.661 -28.04,0 -54.79,6.34 -80.22,19.012 -25.45,12.68 -44.8,31.258 -58.06,55.738 -13.24,24.501 -19.87,54.311 -19.87,89.461"
         style="fill:#dddddd;fill-opacity:1;fill-rule:nonzero;stroke:none"/>
      <path d="m 4731.78,1078.43 c 0,-34.38 6.81,-59.78 20.45,-76.2 13.63,-16.421 30.25,-24.621 49.84,-24.621 18.82,0 34.47,7.52 46.96,22.601 12.48,15.08 18.73,39.81 18.73,74.19 0,32.07 -6.45,55.89 -19.31,71.44 -12.87,15.56 -28.81,23.34 -47.82,23.34 -19.79,0 -36.2,-7.64 -49.26,-22.9 -13.07,-15.28 -19.59,-37.89 -19.59,-67.85 z m -80.1,147.79 h 75.49 v -44.94 c 9.79,15.36 23.05,27.85 39.75,37.45 16.71,9.6 35.24,14.4 55.6,14.4 35.53,0 65.69,-13.92 90.46,-41.77 24.78,-27.85 37.16,-66.65 37.16,-116.39 0,-51.09 -12.48,-90.79 -37.44,-119.118 -24.97,-28.332 -55.23,-42.493 -90.75,-42.493 -16.91,0 -32.22,3.371 -45.95,10.09 -13.74,6.711 -28.2,18.242 -43.36,34.571 V 803.879 h -80.96 v 422.341"
         style="fill:#dddddd;fill-opacity:1;fill-rule:nonzero;stroke:none"/>
      <path d="m 4985.86,1007.57 81.24,12.38 c 3.46,-15.75 10.47,-27.712 21.03,-35.872 10.56,-8.156 25.35,-12.238 44.37,-12.238 20.93,0 36.68,3.84 47.25,11.531 7.1,5.367 10.65,12.578 10.65,21.599 0,6.14 -1.92,11.24 -5.76,15.27 -4.03,3.84 -13.07,7.39 -27.08,10.66 -65.3,14.4 -106.69,27.56 -124.16,39.46 -24.2,16.52 -36.31,39.47 -36.31,68.86 0,26.5 10.47,48.78 31.41,66.83 20.93,18.06 53.39,27.08 97.37,27.08 41.87,0 72.98,-6.82 93.34,-20.45 20.35,-13.64 34.38,-33.8 42.06,-60.5 l -76.35,-14.12 c -3.26,11.91 -9.45,21.03 -18.57,27.37 -9.13,6.34 -22.14,9.51 -39.04,9.51 -21.31,0 -36.59,-2.98 -45.8,-8.93 -6.16,-4.23 -9.22,-9.7 -9.22,-16.42 0,-5.76 2.68,-10.66 8.06,-14.69 7.3,-5.39 32.5,-12.97 75.63,-22.76 43.11,-9.8 73.21,-21.81 90.31,-36.01 16.9,-14.41 25.35,-34.48 25.35,-60.21 0,-28.041 -11.72,-52.139 -35.14,-72.311 -23.44,-20.16 -58.1,-30.25 -104,-30.25 -41.68,0 -74.67,8.442 -98.96,25.352 -24.3,16.898 -40.19,39.848 -47.68,68.859"
         style="fill:#dddddd;fill-opacity:1;fill-rule:nonzero;stroke:none"/>
      <path d="m 5339.63,920.27 v 422.34 h 80.95 v -224.14 l 94.77,107.75 h 99.69 l -104.58,-111.78 112.06,-194.17 h -87.28 l -76.92,137.42 -37.74,-39.47 v -97.95 h -80.95"
         style="fill:#dddddd;fill-opacity:1;fill-rule:nonzero;stroke:none"/>
      <path d="m 5734.88,1073.25 c 0,-30.35 7.2,-53.58 21.62,-69.72 14.39,-16.132 32.15,-24.202 53.29,-24.202 21.12,0 38.83,8.07 53.15,24.202 14.31,16.14 21.47,39.56 21.47,70.29 0,29.96 -7.16,53.01 -21.47,69.14 -14.32,16.13 -32.03,24.2 -53.15,24.2 -21.14,0 -38.9,-8.07 -53.29,-24.2 -14.42,-16.13 -21.62,-39.37 -21.62,-69.71 z m -82.96,4.32 c 0,26.88 6.63,52.91 19.87,78.07 13.26,25.15 32.03,44.36 56.33,57.61 24.28,13.26 51.42,19.88 81.38,19.88 46.28,0 84.21,-15.02 113.79,-45.09 29.57,-30.05 44.37,-68.03 44.37,-113.93 0,-46.29 -14.93,-84.649 -44.8,-115.09 -29.87,-30.442 -67.46,-45.661 -112.79,-45.661 -28.04,0 -54.78,6.34 -80.22,19.012 -25.45,12.68 -44.8,31.258 -58.06,55.738 -13.24,24.501 -19.87,54.311 -19.87,89.461"
         style="fill:#dddddd;fill-opacity:1;fill-rule:nonzero;stroke:none"/>
      <path d="m 6232.41,920.27 v 45.808 c -11.14,-16.328 -25.78,-29.199 -43.93,-38.598 -18.15,-9.421 -37.31,-14.121 -57.47,-14.121 -20.56,0 -39,4.52 -55.31,13.539 -16.33,9.032 -28.14,21.704 -35.44,38.032 -7.3,16.32 -10.94,38.89 -10.94,67.7 v 193.59 h 80.95 v -140.59 c 0,-43.02 1.48,-69.38 4.46,-79.08 2.98,-9.698 8.4,-17.378 16.28,-23.05 7.87,-5.66 17.86,-8.488 29.96,-8.488 13.83,0 26.22,3.789 37.16,11.367 10.95,7.59 18.43,17.011 22.48,28.241 4.02,11.24 6.04,38.75 6.04,82.54 v 129.06 h 80.95 V 920.27 h -75.19"
         style="fill:#dddddd;fill-opacity:1;fill-rule:nonzero;stroke:none"/>
      <path d="m 6756.73,920.27 v 45.808 c -11.14,-16.328 -25.78,-29.199 -43.94,-38.598 -18.14,-9.421 -37.3,-14.121 -57.47,-14.121 -20.55,0 -38.99,4.52 -55.31,13.539 -16.33,9.032 -28.13,21.704 -35.44,38.032 -7.29,16.32 -10.94,38.89 -10.94,67.7 v 193.59 h 80.95 v -140.59 c 0,-43.02 1.49,-69.38 4.46,-79.08 2.98,-9.698 8.4,-17.378 16.28,-23.05 7.88,-5.66 17.87,-8.488 29.97,-8.488 13.82,0 26.22,3.789 37.15,11.367 10.96,7.59 18.44,17.011 22.48,28.241 4.03,11.24 6.05,38.75 6.05,82.54 v 129.06 h 80.95 V 920.27 h -75.19"
         style="fill:#dddddd;fill-opacity:1;fill-rule:nonzero;stroke:none"/>
      <path d="m 7194.04,920.27 h -80.95 v 156.14 c 0,33.04 -1.73,54.4 -5.19,64.11 -3.45,9.69 -9.07,17.23 -16.85,22.61 -7.78,5.37 -17.14,8.06 -28.09,8.06 -14.02,0 -26.6,-3.84 -37.74,-11.52 -11.14,-7.68 -18.77,-17.86 -22.9,-30.54 -4.13,-12.67 -6.2,-36.1 -6.2,-70.29 V 920.27 h -80.94 v 305.95 h 75.18 v -44.94 c 26.69,34.57 60.31,51.85 100.83,51.85 17.86,0 34.18,-3.22 48.98,-9.65 14.78,-6.44 25.97,-14.64 33.56,-24.63 7.58,-9.99 12.86,-21.32 15.84,-33.99 2.98,-12.68 4.47,-30.83 4.47,-54.45 V 920.27"
         style="fill:#dddddd;fill-opacity:1;fill-rule:nonzero;stroke:none"/>
      <path d="m 7276.13,920.27 v 305.95 h 80.96 V 920.27 Z m 0,347.43 v 74.91 h 80.96 v -74.91 h -80.96"
         style="fill:#dddddd;fill-opacity:1;fill-rule:nonzero;stroke:none"/>
      <path d="m 7440.06,920.27 v 305.95 h 80.96 V 920.27 Z m -6.04,343.4 39.75,86.14 h 90.74 l -79.22,-86.14 h -51.27"
         style="fill:#dddddd;fill-opacity:1;fill-rule:nonzero;stroke:none"/>
    </g>
  </g>
</svg>
