<svg width="156" height="46" viewBox="0 0 156 46" fill="none" xmlns="http://www.w3.org/2000/svg">
<g clip-path="url(#clip0_11_99)">
<path d="M149.523 46.1006H5.7509C2.5304 46.1006 0 43.5702 0 40.3497V5.84435C0 2.62385 2.5304 0.0934525 5.7509 0.0934525H149.523C152.744 0.0934525 155.274 2.62385 155.274 5.84435V40.3497C155.274 43.5702 152.744 46.1006 149.523 46.1006Z" fill="black"/>
<path d="M149.523 1.0136C152.169 1.0136 154.354 3.19894 154.354 5.84435V40.3497C154.354 42.9952 152.169 45.1805 149.523 45.1805H5.7509C3.10549 45.1805 0.920144 42.9952 0.920144 40.3497V5.84435C0.920144 3.19894 3.10549 1.0136 5.7509 1.0136H149.523ZM149.523 0.0934525H5.7509C2.5304 0.0934525 0 2.73887 0 5.84435V40.3497C0 43.5702 2.5304 46.1006 5.7509 46.1006H149.523C152.744 46.1006 155.274 43.5702 155.274 40.3497V5.84435C155.274 2.73887 152.744 0.0934525 149.523 0.0934525Z" fill="#A6A6A6"/>
<path d="M78.3272 25.1674C75.5668 25.1674 73.3815 27.2377 73.3815 30.1131C73.3815 32.8736 75.5668 35.0589 78.3272 35.0589C81.0877 35.0589 83.273 32.9886 83.273 30.1131C83.273 27.1227 81.0877 25.1674 78.3272 25.1674ZM78.3272 32.9886C76.832 32.9886 75.5668 31.7234 75.5668 29.9981C75.5668 28.2729 76.832 27.0077 78.3272 27.0077C79.8225 27.0077 81.0877 28.1578 81.0877 29.9981C81.0877 31.7234 79.8225 32.9886 78.3272 32.9886ZM67.6306 25.1674C64.8701 25.1674 62.6848 27.2377 62.6848 30.1131C62.6848 32.8736 64.8701 35.0589 67.6306 35.0589C70.391 35.0589 72.5764 32.9886 72.5764 30.1131C72.5764 27.1227 70.391 25.1674 67.6306 25.1674ZM67.6306 32.9886C66.1353 32.9886 64.8702 31.7234 64.8702 29.9981C64.8702 28.2729 66.1353 27.0077 67.6306 27.0077C69.1258 27.0077 70.391 28.1578 70.391 29.9981C70.391 31.7234 69.1258 32.9886 67.6306 32.9886ZM54.8636 26.6626V28.7329H59.8094C59.6943 29.8831 59.2343 30.8033 58.6592 31.3783C57.9691 32.0685 56.8189 32.8736 54.8636 32.8736C51.7581 32.8736 49.4577 30.4582 49.4577 27.3527C49.4577 24.2472 51.8731 21.8319 54.8636 21.8319C56.4738 21.8319 57.739 22.522 58.6592 23.3271L60.1544 21.8319C58.8892 20.6817 57.279 19.7615 54.9786 19.7615C50.838 19.7615 47.2724 23.2121 47.2724 27.3527C47.2724 31.4934 50.838 34.9439 54.9786 34.9439C57.279 34.9439 58.8892 34.2538 60.2694 32.7586C61.6496 31.3783 62.1097 29.423 62.1097 27.9278C62.1097 27.4677 62.1097 27.0077 61.9947 26.6626H54.8636ZM107.082 28.2729C106.622 27.1227 105.471 25.1674 102.941 25.1674C100.411 25.1674 98.3404 27.1227 98.3404 30.1131C98.3404 32.8736 100.411 35.0589 103.171 35.0589C105.356 35.0589 106.737 33.6787 107.197 32.8736L105.587 31.7234C105.011 32.5285 104.321 33.1036 103.171 33.1036C102.021 33.1036 101.331 32.6435 100.756 31.6084L107.312 28.8479L107.082 28.2729ZM100.411 29.8831C100.411 28.0428 101.906 27.0077 102.941 27.0077C103.746 27.0077 104.551 27.4677 104.781 28.0428L100.411 29.8831ZM95.0049 34.5988H97.1902V20.2216H95.0049V34.5988ZM91.5543 26.2025C90.9792 25.6274 90.0591 25.0524 88.9089 25.0524C86.4935 25.0524 84.1932 27.2377 84.1932 29.9981C84.1932 32.7586 86.3785 34.8289 88.9089 34.8289C90.0591 34.8289 90.9792 34.2538 91.4393 33.6787H91.5543V34.3688C91.5543 36.2091 90.5192 37.2443 88.9089 37.2443C87.6437 37.2443 86.7236 36.3241 86.4935 35.519L84.6532 36.3241C85.2283 37.5893 86.6085 39.1996 89.0239 39.1996C91.5543 39.1996 93.6246 37.7043 93.6246 34.1388V25.3974H91.5543V26.2025ZM89.0239 32.9886C87.5287 32.9886 86.2635 31.7234 86.2635 29.9981C86.2635 28.2729 87.5287 27.0077 89.0239 27.0077C90.5192 27.0077 91.6693 28.2729 91.6693 29.9981C91.6693 31.7234 90.5192 32.9886 89.0239 32.9886ZM117.088 20.2216H111.913V34.5988H114.098V29.193H117.088C119.504 29.193 121.804 27.4677 121.804 24.7073C121.804 21.9469 119.504 20.2216 117.088 20.2216ZM117.203 27.1227H114.098V22.1769H117.203C118.814 22.1769 119.734 23.5571 119.734 24.5923C119.619 25.8575 118.699 27.1227 117.203 27.1227ZM130.43 25.0524C128.82 25.0524 127.21 25.7425 126.635 27.2377L128.59 28.0428C129.05 27.2377 129.74 27.0077 130.545 27.0077C131.696 27.0077 132.731 27.6978 132.846 28.8479V28.963C132.501 28.7329 131.581 28.3879 130.66 28.3879C128.59 28.3879 126.52 29.5381 126.52 31.6084C126.52 33.5637 128.245 34.8289 130.085 34.8289C131.581 34.8289 132.271 34.1388 132.846 33.4487H132.961V34.5988H135.031V29.078C134.801 26.5476 132.846 25.0524 130.43 25.0524ZM130.2 32.9886C129.51 32.9886 128.475 32.6435 128.475 31.7234C128.475 30.5732 129.74 30.2282 130.775 30.2282C131.696 30.2282 132.156 30.4582 132.731 30.6882C132.501 32.0685 131.351 32.9886 130.2 32.9886ZM142.277 25.3974L139.862 31.6084H139.747L137.216 25.3974H134.916L138.712 34.1388L136.526 38.9695H138.712L144.578 25.3974H142.277ZM122.954 34.5988H125.14V20.2216H122.954V34.5988Z" fill="white"/>
<path d="M47 7.90234H49.5235C49.9582 7.90234 50.3518 7.99606 50.7044 8.18351C51.0569 8.37096 51.3346 8.63051 51.5399 8.96456C51.7452 9.29861 51.8466 9.67591 51.8466 10.094C51.8466 10.5747 51.6896 11.0001 51.3781 11.3701C51.0666 11.7402 50.6754 11.9878 50.2069 12.1151L50.1973 12.1656L52.1774 15.0062V15.0663H50.9L48.9802 12.2545H48.106V15.0663H47V7.90234ZM49.4921 11.2428C49.8399 11.2428 50.1345 11.1322 50.3711 10.9135C50.6078 10.6924 50.7285 10.4161 50.7285 10.082C50.7285 9.77444 50.6199 9.50769 50.4025 9.27698C50.1852 9.04627 49.8954 8.93091 49.5332 8.93091H48.106V11.2428H49.4945H49.4921Z" fill="white"/>
<path d="M54.6984 14.722C54.1285 14.3879 53.6817 13.9361 53.3557 13.3666C53.0297 12.797 52.8679 12.1674 52.8679 11.4801C52.8679 10.7927 53.0297 10.1655 53.3557 9.59357C53.6817 9.02401 54.1285 8.5722 54.6984 8.23815C55.2683 7.90411 55.901 7.73828 56.5989 7.73828C57.2967 7.73828 57.927 7.90411 58.4945 8.23815C59.0596 8.5722 59.5063 9.02401 59.8323 9.59357C60.1583 10.1631 60.3201 10.7927 60.3201 11.4801C60.3201 12.1674 60.1583 12.7946 59.8323 13.3666C59.5063 13.9361 59.062 14.3879 58.4945 14.722C57.927 15.056 57.2967 15.2219 56.5989 15.2219C55.901 15.2219 55.2683 15.056 54.6984 14.722ZM57.9198 13.8376C58.3182 13.6069 58.6346 13.2873 58.864 12.8763C59.0958 12.4654 59.2117 12.0016 59.2117 11.4801C59.2117 10.9586 59.0958 10.4947 58.864 10.0838C58.6321 9.67287 58.3182 9.35325 57.9198 9.12254C57.5213 8.89183 57.0794 8.77647 56.5989 8.77647C56.1183 8.77647 55.6764 8.89183 55.2779 9.12254C54.8795 9.35325 54.5632 9.67287 54.3337 10.0838C54.1019 10.4947 53.986 10.9586 53.986 11.4801C53.986 12.0016 54.1019 12.4654 54.3337 12.8763C54.5656 13.2873 54.8795 13.6069 55.2779 13.8376C55.6764 14.0683 56.1183 14.1837 56.5989 14.1837C57.0794 14.1837 57.5213 14.0683 57.9198 13.8376Z" fill="white"/>
<path d="M61.0639 13.9464L64.8335 8.94293H61.2233V7.90234H66.1085V9.02224L62.3679 14.0257H66.1471V15.0663H61.0591V13.9464H61.0639Z" fill="white"/>
<path d="M67.9197 14.7788C67.5116 14.4832 67.2218 14.0675 67.0552 13.5339L68.0815 13.1134C68.1878 13.4811 68.352 13.7502 68.5741 13.9233C68.7963 14.0963 69.0571 14.1828 69.3589 14.1828C69.7139 14.1828 69.9965 14.0627 70.2041 13.8223C70.4118 13.582 70.5156 13.2624 70.5156 12.861V7.89844H71.6216V12.8202C71.6216 13.3273 71.525 13.7598 71.3294 14.1203C71.1363 14.4808 70.8658 14.7548 70.5253 14.9398C70.1824 15.1273 69.7936 15.221 69.3589 15.221C68.8084 15.221 68.3302 15.072 67.9221 14.7764L67.9197 14.7788Z" fill="white"/>
<path d="M73.3675 7.90234H77.731V8.94293H74.4734V10.964H77.4099V12.0046H74.4734V14.0257H77.731V15.0663H73.3675V7.90234Z" fill="white"/>
<path d="M79.2791 7.90095H81.5804C82.3242 7.90095 82.9738 8.04995 83.5268 8.35035C84.0798 8.65075 84.5048 9.07132 84.8042 9.61685C85.1036 10.1599 85.2509 10.7824 85.2509 11.4817C85.2509 12.181 85.1012 12.8035 84.8042 13.3466C84.5048 13.8897 84.0798 14.3127 83.5268 14.6131C82.9738 14.9135 82.3266 15.0625 81.5804 15.0625H79.2791V7.89854V7.90095ZM80.245 6.06008V6H81.281L81.7446 6.61042H81.846L82.3193 6H83.365V6.06008L82.2783 7.27131H81.322L80.2474 6.06008H80.245ZM81.5514 14.0243C82.3701 14.0243 83.0051 13.7984 83.4566 13.349C83.9082 12.8996 84.1353 12.2772 84.1353 11.4841C84.1353 10.691 83.9082 10.0686 83.4566 9.61925C83.0051 9.16985 82.3701 8.94395 81.5514 8.94395H80.3851V14.0267H81.5514V14.0243Z" fill="white"/>
<path d="M87.8733 8.94293H85.8521V7.90234H90.9883V8.94293H88.9769V15.0663H87.8708V8.94293H87.8733Z" fill="white"/>
<path d="M92.138 7.90234H96.5016V8.94293H93.244V10.964H96.1804V12.0046H93.244V14.0257H96.5016V15.0663H92.138V7.90234Z" fill="white"/>
<path d="M101.696 8.94293H99.6746V7.90234H104.811V8.94293H102.8V15.0663H101.694V8.94293H101.696Z" fill="white"/>
<path d="M107.246 14.722C106.676 14.3879 106.229 13.9361 105.903 13.3666C105.577 12.797 105.415 12.1674 105.415 11.4801C105.415 10.7927 105.577 10.1655 105.903 9.59357C106.229 9.02401 106.676 8.5722 107.246 8.23815C107.816 7.90411 108.448 7.73828 109.146 7.73828C109.844 7.73828 110.474 7.90411 111.042 8.23815C111.607 8.5722 112.054 9.02401 112.38 9.59357C112.706 10.1631 112.867 10.7927 112.867 11.4801C112.867 12.1674 112.706 12.7946 112.38 13.3666C112.054 13.9361 111.609 14.3879 111.042 14.722C110.474 15.056 109.844 15.2219 109.146 15.2219C108.448 15.2219 107.816 15.056 107.246 14.722ZM110.467 13.8376C110.865 13.6069 111.182 13.2873 111.411 12.8763C111.643 12.4654 111.759 12.0016 111.759 11.4801C111.759 10.9586 111.643 10.4947 111.411 10.0838C111.179 9.67287 110.865 9.35325 110.467 9.12254C110.069 8.89183 109.627 8.77647 109.146 8.77647C108.666 8.77647 108.224 8.89183 107.825 9.12254C107.427 9.35325 107.11 9.67287 106.881 10.0838C106.649 10.4947 106.533 10.9586 106.533 11.4801C106.533 12.0016 106.649 12.4654 106.881 12.8763C107.113 13.2873 107.427 13.6069 107.825 13.8376C108.224 14.0683 108.666 14.1837 109.146 14.1837C109.627 14.1837 110.069 14.0683 110.467 13.8376Z" fill="white"/>
<path d="M23.9405 22.3383L11.637 35.3325C11.637 35.3325 11.637 35.3373 11.637 35.3398C12.0137 36.7504 13.308 37.7886 14.8463 37.7886C15.4621 37.7886 16.0368 37.6228 16.5318 37.3344L16.5705 37.3104L30.4195 29.3581L23.9381 22.3359L23.9405 22.3383Z" fill="#EA4335"/>
<path d="M36.3865 20.1238L36.3745 20.1166L30.3954 16.668L23.6604 22.6328L30.4195 29.357L36.3648 25.942C37.408 25.3796 38.1156 24.2862 38.1156 23.0269C38.1156 21.7676 37.4177 20.6861 36.3841 20.1238" fill="#FBBC02"/>
<path d="M11.6369 10.668C11.5621 10.9395 11.5234 11.2255 11.5234 11.5187V34.4815C11.5234 34.7771 11.5621 35.0606 11.6369 35.3322L24.3607 22.6696L11.6345 10.668H11.6369Z" fill="#4285F4"/>
<path d="M24.0299 23.0003L30.3978 16.6655L16.5656 8.68437C16.0633 8.38397 15.4765 8.21094 14.8487 8.21094C13.3129 8.21094 12.0161 9.25153 11.637 10.6646C11.637 10.6646 11.637 10.6646 11.637 10.667L24.0323 23.0003H24.0299Z" fill="#34A853"/>
</g>
<defs>
<clipPath id="clip0_11_99">
<rect width="155.274" height="46" fill="white"/>
</clipPath>
</defs>
</svg>
