<svg xmlns="http://www.w3.org/2000/svg" width="100%" height="100%" viewBox="0 0 91 41" fill="none">
  <path d="M5.27444 11.2174C5.74994 11.0272 6.15676 10.7471 6.48962 10.3879C6.82247 10.0233 7.08136 9.59536 7.26099 9.08816C7.44062 8.58624 7.53044 8.02091 7.53044 7.39748C7.53044 6.77404 7.44062 6.22457 7.26099 5.72265C7.08136 5.22601 6.82247 4.79806 6.48962 4.44407C6.15676 4.09008 5.74994 3.81535 5.27444 3.62515C4.79894 3.43494 4.26532 3.33984 3.67358 3.33984H1.15869V11.5027H3.67358C4.26532 11.5027 4.79894 11.4076 5.27444 11.2174ZM2.395 4.39124H3.66829C4.19663 4.39124 4.65629 4.51275 5.03669 4.76107C5.41709 5.00411 5.71296 5.35281 5.91901 5.8019C6.12506 6.25098 6.23073 6.7846 6.23073 7.39748C6.23073 8.01035 6.12506 8.53869 5.91901 8.99834C5.71296 9.45799 5.41709 9.81726 5.03669 10.0709C4.65629 10.3245 4.19663 10.4513 3.66829 10.4513H2.395V4.39124Z" fill="#DDDDDD"/>
  <path d="M12.3751 11.5027H14.4092V10.4513H12.3751V4.39124H14.4092V3.33984H12.3751H11.1335H9.08887V4.39124H11.1335V10.4513H9.08887V11.5027H11.1335H12.3751Z" fill="#DDDDDD"/>
  <path d="M18.3569 4.63354C18.7056 4.37994 19.0966 4.25314 19.5298 4.25314C20.0212 4.25314 20.4227 4.41164 20.7292 4.72336C21.0356 5.03508 21.2205 5.45247 21.2839 5.97552H22.6523C22.6048 5.38907 22.441 4.89243 22.161 4.48033C21.8809 4.06822 21.5164 3.75122 21.0673 3.5346C20.6182 3.31798 20.1163 3.20703 19.551 3.20703C18.8272 3.20703 18.1879 3.38667 17.6437 3.74065C17.0995 4.09464 16.6715 4.58599 16.3704 5.22C16.064 5.854 15.916 6.58839 15.916 7.42845C15.916 8.26851 16.064 9.01874 16.3651 9.65275C16.6663 10.2868 17.0836 10.7728 17.6225 11.1268C18.1615 11.4755 18.7902 11.6551 19.5193 11.6551C20.2061 11.6551 20.819 11.5283 21.3632 11.2695C21.9074 11.0106 22.3353 10.6513 22.6576 10.1917V7.19598H20.0476L20.0001 8.25794L21.4266 8.21039V9.8271C21.2258 10.0543 20.9722 10.2392 20.6658 10.3819C20.3593 10.5245 20.0106 10.5985 19.6144 10.5985C19.16 10.5985 18.7532 10.477 18.3939 10.2286C18.0346 9.98032 17.7441 9.62633 17.538 9.15083C17.332 8.67533 17.2263 8.10472 17.2263 7.42317C17.2263 6.74161 17.3267 6.19214 17.5327 5.72192C17.7335 5.2517 18.0082 4.88714 18.3569 4.63354Z" fill="#DDDDDD"/>
  <path d="M27.5758 11.5027H29.6152V10.4513H27.5758V4.39124H29.6152V3.33984H27.5758H26.3395H24.2896V4.39124H26.3395V10.4513H24.2896V11.5027H26.3395H27.5758Z" fill="#DDDDDD"/>
  <path d="M31.3062 4.39124H33.9426V11.5027H35.1789V4.39124H37.81V3.33984H31.3062V4.39124Z" fill="#DDDDDD"/>
  <path d="M40.6366 9.44605H43.6745L44.3032 11.5066H45.5765L43.0511 3.34375H41.2706L38.7451 11.5066H39.9973L40.6366 9.44605ZM41.6721 6.11224L42.1635 4.31061L42.6548 6.10167L43.3522 8.39466H40.9641L41.6721 6.11224Z" fill="#DDDDDD"/>
  <path d="M43.6483 0.613281H42.3591L41.3447 2.5787H42.3856L43.6483 0.613281Z" fill="#DDDDDD"/>
  <path d="M52.7721 10.4513H48.4873V3.33984H47.251V11.5027H52.7721V10.4513Z" fill="#DDDDDD"/>
  <path d="M55.5407 7.46616L55.4351 5.02524L58.864 11.5027H60.3961V3.33984H59.2021V7.36049L59.2972 9.89123L55.8947 3.33984H54.3467V11.5027H55.5407V7.46616Z" fill="#DDDDDD"/>
  <path d="M66.4876 0.601562H65.2038L64.1841 2.56698H65.2249L66.4876 0.601562Z" fill="#DDDDDD"/>
  <path d="M65.59 11.5027H67.6241V10.4513H65.59V4.39124H67.6241V3.33984H65.59H64.3484H62.3037V4.39124H64.3484V10.4513H62.3037V11.5027H64.3484H65.59Z" fill="#DDDDDD"/>
  <path d="M3.26178 17.3711L0.736328 25.5392H1.98849L2.62778 23.4787H5.66572L6.29444 25.5392H7.56773L5.04228 17.3764H3.26178V17.3711ZM2.95006 22.422L3.65804 20.1396L4.14939 18.338L4.64074 20.129L5.33815 22.422H2.95006Z" fill="#DDDDDD"/>
  <path d="M16.6875 24.4825V25.5392H18.7374H19.979H22.0131V24.4825H19.979V18.4278H22.0131V17.3711H19.979H18.7374H16.6875V18.4278H18.7374V24.4825H16.6875Z" fill="#DDDDDD"/>
  <path d="M28.7963 21.397L28.8862 23.9225L25.4837 17.3711H23.9409V25.5392H25.135V21.5027L25.0293 19.0565L28.4529 25.5392H29.9851V17.3711H28.7963V21.397Z" fill="#DDDDDD"/>
  <path d="M37.5775 18.4278V17.3711H31.6602V25.5392H32.9018V21.8303H36.1405V20.7789H32.9018V18.4278H37.5775Z" fill="#DDDDDD"/>
  <path d="M43.9861 17.7469C43.4736 17.4034 42.866 17.2344 42.1739 17.2344C41.4817 17.2344 40.8741 17.4087 40.3617 17.7469C39.8492 18.0903 39.4476 18.5764 39.1623 19.2104C38.877 19.8444 38.7344 20.5893 38.7344 21.4558C38.7344 22.3223 38.877 23.0567 39.1623 23.6907C39.4476 24.3247 39.8439 24.8107 40.3617 25.1594C40.8741 25.5081 41.4817 25.6772 42.1739 25.6772C42.866 25.6772 43.4736 25.5029 43.9861 25.1594C44.4985 24.8107 44.9001 24.3247 45.1854 23.6907C45.4707 23.0567 45.6133 22.317 45.6133 21.4558C45.6133 20.5946 45.4707 19.8391 45.1854 19.2104C44.9001 18.5764 44.5038 18.0903 43.9861 17.7469ZM44.0442 23.1412C43.8645 23.6167 43.6162 23.9812 43.2939 24.2401C42.9716 24.499 42.6018 24.6258 42.1739 24.6258C41.7459 24.6258 41.3813 24.499 41.0591 24.2401C40.7368 23.9812 40.4832 23.6167 40.3035 23.1412C40.1239 22.6657 40.0341 22.1056 40.0341 21.4558C40.0341 20.8059 40.1239 20.2459 40.3035 19.7704C40.4832 19.2949 40.7368 18.9303 41.0591 18.6715C41.3813 18.4126 41.7565 18.2858 42.1739 18.2858C42.5912 18.2858 42.9769 18.4126 43.2939 18.6715C43.6109 18.9303 43.8645 19.2949 44.0442 19.7651C44.2238 20.2353 44.3136 20.8007 44.3136 21.4558C44.3136 22.1109 44.2238 22.6657 44.0442 23.1412Z" fill="#DDDDDD"/>
  <path d="M51.6102 17.6458C51.1875 17.4609 50.7068 17.3711 50.1731 17.3711H46.9556V25.5339H48.1972V22.1208H49.1904C49.4018 22.2424 49.5973 22.3692 49.7822 22.5065C50.1626 22.7866 50.4796 23.093 50.7332 23.4206C50.9921 23.7481 51.1928 24.0915 51.3461 24.4508C51.4993 24.8101 51.5997 25.1746 51.6419 25.5392H52.9046C52.8677 25.1482 52.7831 24.7678 52.651 24.3927C52.5242 24.0176 52.334 23.6583 52.091 23.3043C51.848 22.9503 51.5362 22.6228 51.1664 22.3058C51.0449 22.2054 50.9075 22.1103 50.7754 22.0152C50.9022 21.9835 51.0343 21.9623 51.1506 21.9201C51.531 21.7827 51.8585 21.6031 52.128 21.3706C52.3974 21.1381 52.6035 20.8793 52.7461 20.594C52.8888 20.3034 52.9628 20.0075 52.9628 19.6958C52.9628 19.2044 52.8412 18.787 52.5982 18.4436C52.3552 18.1002 52.0276 17.836 51.6049 17.6564L51.6102 17.6458ZM51.4412 20.4143C51.2879 20.6257 51.0819 20.7842 50.823 20.9004C50.5588 21.0113 50.2577 21.0695 49.9143 21.0695H48.1972V18.4278H50.1731C50.4532 18.4278 50.7068 18.4806 50.9339 18.581C51.1611 18.6814 51.3408 18.824 51.4729 19.0142C51.6049 19.1991 51.6736 19.4263 51.6736 19.6905C51.6736 19.9547 51.5997 20.203 51.4464 20.4143H51.4412Z" fill="#DDDDDD"/>
  <path d="M58.6636 17.3711L57.6492 22.2054L57.3903 23.7957L57.142 22.2054L56.1012 17.3711H54.4792L53.8716 25.5392H55.0762L55.3298 20.4249L55.4038 18.6021L55.7313 20.4249L56.8303 25.5392H57.8817L58.9912 20.4249L59.3452 18.6233L59.3927 20.4249L59.6569 25.5392H60.8879L60.2697 17.3711H58.6636Z" fill="#DDDDDD"/>
  <path d="M64.0787 17.3711L61.5532 25.5339H62.8054L63.4447 23.4734H66.4826L67.1113 25.5339H68.3846L65.8592 17.3711H64.0787ZM63.767 22.422L64.4749 20.1396L64.9663 18.338L65.4576 20.129L66.155 22.422H63.767Z" fill="#DDDDDD"/>
  <path d="M73.3776 16.5904L74.7935 14.625H73.647L72.7224 15.9353L71.8084 14.625H70.6514L72.0673 16.5904H73.3776Z" fill="#DDDDDD"/>
  <path d="M74.3284 23.7593C74.1593 24.0341 73.9427 24.2454 73.668 24.3986C73.3932 24.5519 73.0762 24.6258 72.7064 24.6258C72.2837 24.6258 71.9086 24.499 71.5705 24.2454C71.2376 23.9918 70.9735 23.6273 70.7833 23.1518C70.5931 22.6763 70.4979 22.1109 70.4979 21.4558C70.4979 20.8007 70.5931 20.2353 70.778 19.7598C70.9629 19.2843 71.2271 18.9198 71.5652 18.6662C71.9033 18.4126 72.2943 18.2858 72.7381 18.2858C73.2506 18.2858 73.6733 18.4443 74.0008 18.7613C74.3284 19.0783 74.5239 19.4957 74.5873 20.0187H75.9451C75.8976 19.4428 75.7285 18.9462 75.4379 18.5288C75.1473 18.1114 74.7669 17.7944 74.302 17.5672C73.837 17.3453 73.3193 17.2344 72.754 17.2344C72.046 17.2344 71.4225 17.4087 70.8889 17.7469C70.3553 18.0903 69.9379 18.5764 69.642 19.2104C69.3462 19.8444 69.1982 20.584 69.1982 21.4452C69.1982 22.3064 69.3409 23.0038 69.6262 23.6378C69.9115 24.2718 70.3183 24.7738 70.8414 25.133C71.3697 25.4976 71.9879 25.6772 72.7064 25.6772C73.3404 25.6772 73.8899 25.5557 74.3601 25.3179C74.8303 25.0802 75.2054 24.7473 75.4907 24.3141C75.7708 23.8809 75.9398 23.3789 75.9927 22.7978H74.6243C74.5926 23.1623 74.4922 23.4846 74.3284 23.7593Z" fill="#DDDDDD"/>
  <path d="M82.0102 21.397L82.1 23.9225L78.6975 17.3711H77.1548V25.5392H78.3488V21.5027L78.2432 19.0565L81.6721 25.5392H83.199V17.3711H82.0102V21.397Z" fill="#DDDDDD"/>
  <path d="M90.4321 18.4278V17.3711H88.3927H87.1564H85.1064V18.4278H87.1564V24.4825H85.1064V25.5392H87.1564H88.3927H90.4321V24.4825H88.3927V18.4278H90.4321Z" fill="#DDDDDD"/>
  <path d="M89.2962 14.6328H88.0071L86.9927 16.5982H88.0335L89.2962 14.6328Z" fill="#DDDDDD"/>
  <path d="M3.26178 31.4102L0.736328 39.573H1.98849L2.62778 37.5125H5.66572L6.29444 39.573H7.56773L5.04228 31.4102H3.26178ZM2.95006 36.4611L3.65804 34.1786L4.14939 32.377L4.64074 34.1681L5.33815 36.4611H2.95006Z" fill="#DDDDDD"/>
  <path d="M10.7534 32.6999C11.1021 32.4463 11.4931 32.3195 11.9263 32.3195C12.4177 32.3195 12.8192 32.478 13.1257 32.7898C13.4321 33.1015 13.617 33.5189 13.6804 34.0419H15.0488C15.0013 33.4555 14.8375 32.9588 14.5575 32.5467C14.2774 32.1346 13.9129 31.8176 13.4638 31.601C13.0147 31.3844 12.5128 31.2734 11.9475 31.2734C11.2236 31.2734 10.5844 31.4531 10.0402 31.8071C9.49598 32.161 9.06802 32.6524 8.76687 33.2864C8.46043 33.9204 8.3125 34.6548 8.3125 35.4949C8.3125 36.3349 8.46043 37.0852 8.76159 37.7192C9.06274 38.3532 9.48013 38.8392 10.019 39.1932C10.5579 39.5419 11.1867 39.7216 11.9158 39.7216C12.6026 39.7216 13.2155 39.5948 13.7597 39.3359C14.3038 39.077 14.7318 38.7177 15.0541 38.2581V35.2624H12.4441L12.3965 36.3243L13.8231 36.2768V37.8935C13.6223 38.1207 13.3687 38.3056 13.0623 38.4483C12.7558 38.5909 12.4071 38.6649 12.0109 38.6649C11.5565 38.6649 11.1497 38.5434 10.7904 38.295C10.4311 38.0467 10.1405 37.6927 9.9345 37.2172C9.72844 36.7417 9.62278 36.1711 9.62278 35.4896C9.62278 34.808 9.72316 34.2585 9.92921 33.7883C10.13 33.3181 10.4047 32.9536 10.7534 32.6999Z" fill="#DDDDDD"/>
  <path d="M17.765 35.864H20.9456V34.8127H17.765V32.4615H22.3827V31.4102H16.5234V39.573H22.4303V38.5216H17.765V35.864Z" fill="#DDDDDD"/>
  <path d="M28.7963 35.4308L28.8862 37.9615L25.4837 31.4102H23.9409V39.573H25.135V35.5365L25.0293 33.0956L28.4529 39.573H29.9851V31.4102H28.7963V35.4308Z" fill="#DDDDDD"/>
  <path d="M31.3062 32.4615H33.9426V39.573H35.1789V32.4615H37.81V31.4102H31.3062V32.4615Z" fill="#DDDDDD"/>
  <path d="M44.0921 36.6724C44.0921 37.0686 44.0129 37.4174 43.8544 37.7132C43.6959 38.0091 43.474 38.2416 43.1886 38.4053C42.9033 38.5691 42.5652 38.6484 42.1742 38.6484C41.7833 38.6484 41.4451 38.5691 41.1546 38.4053C40.864 38.2416 40.6421 38.0091 40.4836 37.7132C40.3251 37.4174 40.2458 37.0686 40.2458 36.6724V31.4102H38.9937V36.6724C38.9937 37.28 39.1257 37.8136 39.3899 38.268C39.6541 38.7223 40.0239 39.0763 40.4994 39.3299C40.9749 39.5835 41.535 39.7103 42.1742 39.7103C42.8135 39.7103 43.3683 39.5835 43.8385 39.3299C44.3087 39.0763 44.6786 38.7223 44.9427 38.268C45.2069 37.8136 45.339 37.28 45.339 36.6724V31.4102H44.0868V36.6724H44.0921Z" fill="#DDDDDD"/>
  <path d="M52.1333 35.403C52.4027 35.1705 52.6088 34.9117 52.7514 34.6264C52.8941 34.3358 52.968 34.0399 52.968 33.7282C52.968 33.2368 52.8465 32.8194 52.6035 32.476C52.3605 32.1326 52.0329 31.8684 51.6102 31.6888C51.1875 31.5092 50.7068 31.4141 50.1731 31.4141H46.9556V39.5769H48.1972V36.1638H49.1904C49.4018 36.2853 49.5973 36.4121 49.7822 36.5495C50.1626 36.8295 50.4796 37.136 50.7332 37.4635C50.9921 37.7911 51.1928 38.1345 51.3461 38.4938C51.4993 38.8531 51.5997 39.2176 51.6419 39.5822H52.9046C52.8677 39.1912 52.7831 38.8108 52.651 38.4357C52.5242 38.0605 52.334 37.696 52.091 37.3473C51.848 36.9986 51.5362 36.6657 51.1664 36.3487C51.0449 36.2484 50.9075 36.1533 50.7754 36.0582C50.9022 36.0265 51.0343 36.0053 51.1506 35.963C51.531 35.8257 51.8585 35.646 52.128 35.4136L52.1333 35.403ZM49.9195 35.1071H48.2024V32.4655H50.1784C50.4584 32.4655 50.712 32.5183 50.9392 32.6187C51.1664 32.7191 51.3461 32.8617 51.4781 33.0519C51.6102 33.2368 51.6789 33.464 51.6789 33.7282C51.6789 33.9924 51.6049 34.2407 51.4517 34.452C51.2985 34.6633 51.0924 34.8218 50.8336 34.9381C50.5694 35.049 50.2682 35.1071 49.9248 35.1071H49.9195Z" fill="#DDDDDD"/>
  <path d="M56.4756 31.4102L53.9502 39.573H55.2024L55.8416 37.5125H58.8796L59.5083 39.573H60.7816L58.2561 31.4102H56.4756ZM56.1639 36.4611L56.8719 34.1786L57.3633 32.377L57.8546 34.1681L58.552 36.4611H56.1639Z" fill="#DDDDDD"/>
  <path d="M62.1504 40.6006V39.5703H67.7983V40.6006H62.1504Z" fill="#DDDDDD"/>
</svg>
