<svg xmlns="http://www.w3.org/2000/svg" width="168.21" height="49.61" viewBox="0 0 168.21 49.61" fill="none"><path d="M32.9,1.35a24.89,24.89,0,0,0-16.2,0l8.11,5.85Z" fill="#dddddd"/><path d="M49.61,25.27v-.46A24.75,24.75,0,0,0,44.52,9.74l-3.1,9.54Z" fill="#dddddd"/><path d="M4.35,38.84a24.89,24.89,0,0,0,13.34,9.74l-3.15-9.76Z" fill="#dddddd"/><path d="M5.08,9.77A24.66,24.66,0,0,0,0,24.81c0,.15,0,.29,0,.44l8.18-6Z" fill="#dddddd"/><path d="M45.27,38.84l-10.19,0L31.9,48.59a24.92,24.92,0,0,0,13.37-9.75" fill="#dddddd"/><path d="M41.42,19.28l3.1-9.54A25,25,0,0,0,32.9,1.35L24.81,7.21Z" fill="#dddddd"/><path d="M14.54,38.82l3.15,9.76a25.1,25.1,0,0,0,14.2,0l3.19-9.77Z" fill="#dddddd"/><path d="M35.08,38.82l10.19,0a24.67,24.67,0,0,0,4.34-13.57l-8.19-6Z" fill="#dddddd"/><path d="M8.19,19.28,0,25.25A24.58,24.58,0,0,0,4.35,38.84l10.19,0Z" fill="#dddddd"/><path d="M24.81,7.21,16.7,1.36A24.84,24.84,0,0,0,5.08,9.77l3.11,9.51Z" fill="#dddddd"/><polygon points="78.89 33.22 78.5 33.22 68.09 10.79 60.38 10.79 60.38 38.84 65.38 38.84 65.38 16.41 65.75 16.41 76.17 38.84 83.93 38.84 83.93 10.79 78.89 10.79 78.89 33.22" fill="#dddddd"/><path d="M96,10.79,87.4,38.84h5l2.33-7.54h10.66l2.33,7.54h5.1l-8.68-28.05Zm-.22,16.66,4-13.08h.68l4,13.08Z" fill="#dddddd"/><polygon points="128.17 24.46 136.12 10.79 130.37 10.79 122.47 24.32 130.48 38.84 136.28 38.84 128.17 24.46" fill="#dddddd"/><polygon points="120.36 22.24 120.36 10.79 115.32 10.79 115.32 38.84 120.36 38.84 120.36 26.52 120.36 22.24" fill="#dddddd"/><rect x="140.38" y="10.79" width="5.05" height="28.05" fill="#dddddd"/><polygon points="148.63 10.79 148.63 14.86 155.9 14.86 155.9 38.84 160.94 38.84 160.94 14.86 168.21 14.86 168.21 10.79 148.63 10.79" fill="#dddddd"/></svg>
