<svg xmlns="http://www.w3.org/2000/svg" width="100" height="100" viewBox="0 0 149 41" fill="none">
    <path d="M21.2022 5.98536C20.9681 5.86538 20.8768 5.57806 20.9967 5.34417C21.1166 5.11004 21.4038 5.01879 21.6361 5.13866C21.87 5.25853 21.9633 5.54573 21.8414 5.77986H21.8434C21.7578 5.94338 21.5922 6.03856 21.419 6.03856C21.3468 6.03856 21.2706 6.02138 21.2022 5.98536ZM22.7661 6.01959C22.6197 5.80061 22.6768 5.50578 22.8955 5.35943C23.1124 5.21273 23.4092 5.26986 23.5558 5.48872C23.7022 5.70555 23.6452 6.00039 23.4262 6.14888C23.3465 6.2022 23.2533 6.22879 23.1619 6.22879C23.0078 6.22879 22.8594 6.15652 22.7661 6.01959ZM15.9852 5.94338C15.9204 5.6885 16.0745 5.42956 16.3294 5.36492C16.5844 5.30027 16.8432 5.45449 16.9079 5.70949C16.9725 5.96437 16.8166 6.22319 16.5635 6.28783C16.5236 6.29738 16.4855 6.3031 16.4456 6.3031C16.2324 6.3031 16.0403 6.15831 15.9852 5.94338ZM17.9601 6.26875C17.7945 6.06528 17.8249 5.76459 18.0304 5.59905C18.2339 5.4335 18.5327 5.46582 18.6982 5.66954C18.8638 5.87504 18.8334 6.17357 18.6298 6.33912C18.5403 6.40961 18.4339 6.44575 18.3291 6.44575C18.1903 6.44575 18.0533 6.3848 17.9601 6.26875ZM19.3719 6.98986C19.2577 6.75204 19.3584 6.46865 19.5944 6.35439C19.8323 6.24215 20.1158 6.34306 20.2299 6.57886C20.3421 6.81668 20.2433 7.10019 20.0054 7.21242C19.9388 7.24474 19.8703 7.26001 19.7999 7.26001C19.6231 7.26001 19.4536 7.16113 19.3719 6.98986ZM14.6304 7.07359C14.5866 6.81477 14.7616 6.56931 15.0204 6.52566C15.2792 6.48189 15.5247 6.65686 15.5683 6.91758C15.6122 7.1764 15.4373 7.42186 15.1783 7.4636C15.1519 7.46945 15.125 7.47124 15.0985 7.47124C14.8701 7.47124 14.6686 7.30569 14.6304 7.07359ZM25.8866 8.33321C25.6487 8.22097 25.5478 7.93746 25.6601 7.69964C25.7723 7.46181 26.0558 7.36091 26.2936 7.47314C26.5315 7.58538 26.6324 7.86889 26.5201 8.10671C26.4382 8.27798 26.2689 8.37877 26.09 8.37877C26.0217 8.37877 25.9531 8.36362 25.8866 8.33321ZM13.1559 8.31794C12.975 8.1277 12.9827 7.82523 13.173 7.64442C13.3633 7.4636 13.6638 7.47124 13.8446 7.66147C14.0255 7.85183 14.0178 8.15239 13.8276 8.33511C13.7361 8.42254 13.6182 8.4644 13.5002 8.4644C13.3746 8.4644 13.2491 8.41491 13.1559 8.31794ZM27.4904 9.49192C27.2831 9.33007 27.2468 9.03141 27.4087 8.82412C27.5703 8.61659 27.8691 8.58045 28.0765 8.74218C28.282 8.90403 28.32 9.20257 28.1582 9.4101C28.0649 9.52997 27.9243 9.59282 27.7834 9.59282C27.6807 9.59282 27.5779 9.5605 27.4904 9.49192ZM9.32382 10.0209C9.18499 9.79832 9.25357 9.50528 9.47624 9.36633C9.70059 9.22749 9.99364 9.29584 10.1325 9.5203C10.2696 9.7431 10.2011 10.0361 9.97837 10.1749C9.90037 10.2225 9.81283 10.2454 9.72719 10.2454C9.56928 10.2454 9.41339 10.1654 9.32382 10.0209ZM30.4224 10.3024C30.2359 10.1161 30.2379 9.81538 30.4243 9.63063C30.6109 9.44433 30.9115 9.44624 31.0961 9.63278C31.2824 9.81908 31.2805 10.1198 31.0942 10.3063C31.0009 10.3975 30.881 10.4432 30.7591 10.4432C30.6375 10.4432 30.5157 10.3975 30.4224 10.3024ZM7.61908 11.2385C7.46129 11.0292 7.50315 10.7304 7.71235 10.5725C7.92179 10.4146 8.22033 10.4546 8.37824 10.664C8.53615 10.875 8.49441 11.1738 8.28497 11.3318C8.19957 11.3964 8.09867 11.4268 7.99956 11.4268C7.855 11.4268 7.71235 11.3622 7.61908 11.2385ZM35.6395 11.4135C35.6109 11.1528 35.8012 10.9189 36.0619 10.8923C36.3244 10.8636 36.5585 11.054 36.5851 11.3165C36.6118 11.5772 36.4216 11.8111 36.1609 11.8379C36.1438 11.8398 36.1286 11.8398 36.1113 11.8398C35.8715 11.8398 35.6642 11.6589 35.6395 11.4135ZM30.2169 11.8664C30.0343 11.676 30.04 11.3754 30.2303 11.1927C30.4186 11.0121 30.7212 11.0177 30.9019 11.208C31.0845 11.3964 31.0789 11.6989 30.8886 11.8797C30.7954 11.969 30.6774 12.0129 30.5593 12.0129C30.4338 12.0129 30.3102 11.9634 30.2169 11.8664ZM3.6692 12.2468C3.59692 11.9937 3.74351 11.7312 3.99636 11.6589C4.24766 11.5848 4.5122 11.7312 4.58448 11.9843C4.65676 12.2374 4.51018 12.4999 4.25911 12.5722C4.21534 12.5856 4.16954 12.5913 4.1278 12.5913C3.92038 12.5913 3.73015 12.4544 3.6692 12.2468ZM37.5364 12.6998V12.6978C37.3537 12.5096 37.3576 12.2089 37.5459 12.0263C37.7361 11.8436 38.0368 11.8474 38.2194 12.0376C38.4021 12.2242 38.3984 12.5266 38.21 12.7094C38.1167 12.7987 37.9968 12.8444 37.8789 12.8425C37.7534 12.8425 37.6297 12.795 37.5364 12.6998ZM39.2298 12.9337C39.1899 12.6731 39.3687 12.4316 39.6275 12.3916C39.8881 12.3517 40.1297 12.5303 40.1697 12.7892C40.2096 13.0478 40.0309 13.2914 39.772 13.3314C39.7473 13.3353 39.7225 13.3372 39.6998 13.3372C39.4677 13.3372 39.2659 13.1678 39.2298 12.9337ZM31.5372 13.4113C31.3814 13.2002 31.425 12.9014 31.6364 12.7454C31.8476 12.5895 32.1461 12.6331 32.3022 12.8444C32.4584 13.0555 32.4145 13.3543 32.2032 13.5103C32.1177 13.5731 32.0187 13.6035 31.9199 13.6035C31.7751 13.6035 31.6305 13.5369 31.5372 13.4113ZM35.666 13.3466C35.6376 13.0841 35.8259 12.85 36.0886 12.8234C36.3491 12.795 36.5832 12.9852 36.6118 13.2457C36.6384 13.5064 36.45 13.7406 36.1893 13.769C36.1722 13.771 36.1552 13.771 36.138 13.771C35.8984 13.771 35.6908 13.5902 35.666 13.3466ZM2.26133 13.7823C2.04438 13.6338 1.98915 13.3372 2.13944 13.1202H2.13765C2.28793 12.9052 2.58467 12.85 2.79984 12.9985C3.01667 13.1488 3.06999 13.4436 2.92149 13.6607C2.83013 13.7939 2.67973 13.8662 2.52945 13.8662C2.43642 13.8662 2.34315 13.8393 2.26133 13.7823ZM0.609671 13.7594C0.415737 13.5844 0.400471 13.2838 0.57556 13.0878C0.752439 12.8938 1.053 12.8786 1.24717 13.0555C1.44301 13.2305 1.45828 13.5311 1.2814 13.7271C1.18813 13.8299 1.05884 13.8832 0.929436 13.8832C0.815174 13.8832 0.701152 13.8433 0.609671 13.7594ZM40.1507 14.3208C40.0041 14.104 40.0592 13.8089 40.2781 13.6607C40.4949 13.5122 40.79 13.5692 40.9383 13.7863C41.0868 14.0049 41.0297 14.2998 40.8109 14.4482C40.7291 14.5034 40.6377 14.53 40.5446 14.53C40.3922 14.53 40.242 14.4558 40.1507 14.3208ZM34.3952 14.608C34.1915 14.4425 34.1611 14.1419 34.3266 13.9384H34.3286C34.4941 13.7347 34.7946 13.7061 34.9964 13.8717C35.1999 14.0391 35.2303 14.3379 35.063 14.5415C34.9697 14.6556 34.8327 14.7166 34.6958 14.7166C34.5891 14.7166 34.4826 14.6803 34.3952 14.608ZM32.5038 15.2588C32.3441 15.0496 32.3841 14.7508 32.5934 14.5928C32.8008 14.4331 33.0996 14.473 33.2594 14.6823C33.4191 14.8897 33.3791 15.1883 33.1698 15.3483C33.0843 15.4148 32.9816 15.4453 32.8825 15.4453C32.7379 15.4453 32.5971 15.3825 32.5038 15.2588ZM1.05694 15.6661C0.874333 15.4757 0.87803 15.1752 1.06648 14.9924C1.25481 14.8098 1.55728 14.8135 1.74 15.002C1.9226 15.1904 1.91867 15.491 1.73046 15.6736C1.63719 15.7648 1.51744 15.8087 1.39936 15.8087C1.27377 15.8087 1.15009 15.7611 1.05694 15.6661ZM41.5167 16.0046C41.3379 15.8124 41.3493 15.5119 41.5434 15.3331C41.7356 15.1542 42.0363 15.1656 42.2149 15.3597C42.394 15.5518 42.3805 15.8524 42.1885 16.0313C42.097 16.1149 41.981 16.1569 41.8649 16.1569C41.7375 16.1569 41.61 16.1055 41.5167 16.0046ZM43.7106 16.349C43.448 16.3414 43.2407 16.1225 43.2483 15.8619C43.2559 15.5975 43.4728 15.392 43.7371 15.3977H43.7353C43.9978 15.4054 44.2072 15.6241 44.1996 15.8867C44.192 16.1435 43.9807 16.349 43.7239 16.349H43.7106ZM45.6589 16.9122C45.3983 16.8742 45.2175 16.6326 45.2555 16.3737C45.2915 16.1131 45.5333 15.9323 45.794 15.9703C46.0526 16.0066 46.2334 16.2481 46.1974 16.5069C46.163 16.7449 45.9596 16.9159 45.7254 16.9159C45.7046 16.9159 45.6818 16.9141 45.6589 16.9122ZM47.2 16.8323C47.0914 16.5927 47.1963 16.311 47.436 16.2006C47.6738 16.0921 47.9553 16.1968 48.0656 16.4347C48.1742 16.6744 48.0696 16.9559 47.8317 17.0663C47.7671 17.0949 47.7003 17.1101 47.6339 17.1101C47.4531 17.1101 47.2799 17.0055 47.2 16.8323ZM2.56571 17.133C2.3812 16.9464 2.3812 16.644 2.5675 16.4595C2.75225 16.2747 3.05472 16.2747 3.23923 16.4613C3.42565 16.6458 3.42374 16.9482 3.23923 17.133C3.14596 17.226 3.0243 17.2718 2.90241 17.2718C2.78063 17.2718 2.65898 17.226 2.56571 17.133ZM48.4177 18.7179C48.2084 18.5599 48.1646 18.2612 48.3227 18.052C48.4806 17.8407 48.7791 17.7989 48.9903 17.9568H48.9885C49.1997 18.1148 49.2416 18.4134 49.0837 18.6228C48.9903 18.7481 48.8477 18.813 48.7031 18.813C48.6041 18.813 48.5034 18.7825 48.4177 18.7179ZM3.00713 18.9956C2.773 18.8796 2.67425 18.5942 2.79018 18.3581C2.90623 18.1223 3.19164 18.0252 3.42768 18.1413C3.66348 18.2575 3.76056 18.5409 3.64451 18.7787C3.56269 18.946 3.39333 19.0432 3.21824 19.0432C3.14596 19.0432 3.07559 19.028 3.00713 18.9956ZM2.55617 20.706C2.42485 20.4797 2.50106 20.1886 2.72732 20.0554C2.95572 19.9242 3.24686 20.0001 3.37806 20.2266C3.51129 20.4531 3.43328 20.7459 3.20691 20.8774C3.13069 20.9211 3.04899 20.942 2.96717 20.942C2.80353 20.942 2.64562 20.8584 2.55617 20.706ZM49.8905 19.8193C49.6621 19.6919 49.5801 19.4009 49.7076 19.1725C49.8372 18.9442 50.1263 18.8624 50.3565 18.9899C50.5847 19.1192 50.6666 19.4085 50.5391 19.6387H50.5373C50.4515 19.7946 50.2899 19.8822 50.1226 19.8822C50.0445 19.8822 49.9645 19.8613 49.8905 19.8193ZM49.3196 21.5317C49.0912 21.4043 49.0093 21.1133 49.1368 20.885C49.2663 20.6566 49.5554 20.5749 49.7856 20.7023C50.014 20.8316 50.0957 21.1209 49.9682 21.3511H49.9664C49.8808 21.507 49.7191 21.5945 49.5517 21.5945C49.4736 21.5945 49.3938 21.5738 49.3196 21.5317ZM47.6073 22.2681C47.3789 22.1407 47.2969 21.8497 47.4244 21.6213C47.554 21.393 47.8431 21.3112 48.0733 21.4387C48.3017 21.5679 48.3834 21.8573 48.2559 22.0875H48.2541C48.1684 22.2434 48.0067 22.3309 47.8394 22.3309C47.7613 22.3309 47.6813 22.31 47.6073 22.2681ZM3.60265 22.5345V22.5364C3.46179 22.3137 3.52834 22.0208 3.74911 21.8801C3.97167 21.7393 4.26472 21.804 4.40558 22.0265H4.40737C4.54643 22.2473 4.48167 22.5421 4.25911 22.683C4.18111 22.7324 4.09154 22.7572 4.00602 22.7572C3.84811 22.7572 3.69389 22.6791 3.60265 22.5345ZM46.0946 23.5297C46.0242 23.2766 46.1745 23.016 46.4276 22.9455V22.9474C46.6807 22.8769 46.9432 23.0273 47.0115 23.2803C47.082 23.5334 46.9317 23.7941 46.6786 23.8645C46.6368 23.8758 46.5931 23.8817 46.5532 23.8817C46.3437 23.8817 46.1517 23.7426 46.0946 23.5297ZM5.26933 24.1213C5.03914 23.9957 4.95351 23.7066 5.0791 23.4764C5.2066 23.2443 5.49583 23.1606 5.72602 23.2862C5.95633 23.4135 6.03994 23.7026 5.91435 23.933C5.82681 24.0909 5.66507 24.1804 5.49583 24.1804C5.41962 24.1804 5.34161 24.1612 5.26933 24.1213ZM6.99124 24.8253C6.84096 24.6104 6.89237 24.3134 7.1092 24.1612C7.32413 24.011 7.61908 24.0643 7.76936 24.2792H7.77139C7.92179 24.4942 7.86836 24.7911 7.65343 24.9415C7.56959 25.0003 7.47453 25.0269 7.38126 25.0269C7.23086 25.0269 7.0826 24.9567 6.99124 24.8253ZM44.9567 24.7284C44.9263 24.4676 45.1146 24.2317 45.3754 24.2012C45.6361 24.1728 45.872 24.3591 45.9023 24.6198V24.6217C45.9309 24.8824 45.7445 25.1165 45.4819 25.147C45.4647 25.1488 45.4457 25.1507 45.4287 25.1507C45.1888 25.1507 44.9834 24.9699 44.9567 24.7284ZM44.5154 26.7679C44.3765 26.5434 44.4451 26.2505 44.6676 26.1114C44.8921 25.9727 45.1851 26.0411 45.3241 26.2636C45.4629 26.4864 45.3943 26.7813 45.1699 26.9201C45.0919 26.9677 45.0062 26.9924 44.9207 26.9924C44.7608 26.9924 44.6049 26.9125 44.5154 26.7679ZM9.71407 28.1227C9.52371 27.94 9.51608 27.6394 9.6969 27.4491C9.87747 27.2588 10.1782 27.2512 10.3684 27.432C10.5587 27.6128 10.5663 27.9134 10.3856 28.1055C10.2924 28.2025 10.1668 28.252 10.0412 28.252C9.92327 28.252 9.80519 28.2101 9.71407 28.1227ZM43.1092 28.2254C42.8943 28.0732 42.8449 27.7763 42.997 27.5632C43.1492 27.3482 43.4462 27.2969 43.6611 27.4491C43.8742 27.6031 43.9255 27.9 43.7715 28.1132C43.6801 28.2444 43.5337 28.3129 43.3852 28.3129C43.2883 28.3129 43.1931 28.2843 43.1092 28.2254ZM24.9484 29.0987C24.6898 29.0511 24.5185 28.8038 24.566 28.545C24.6136 28.2863 24.861 28.1151 25.1198 28.1625C25.3786 28.2101 25.5497 28.4575 25.5021 28.7163C25.4603 28.9446 25.2606 29.1063 25.0341 29.1063C25.0056 29.1063 24.977 29.1044 24.9484 29.0987ZM21.05 28.8343C21.029 28.5717 21.2251 28.3433 21.4876 28.3224C21.7482 28.3016 21.9785 28.4974 21.9993 28.758C22.0203 29.0207 21.8243 29.249 21.5617 29.27C21.5483 29.2719 21.537 29.2719 21.5236 29.2719C21.2782 29.2719 21.0709 29.0834 21.05 28.8343ZM26.8226 29.4374C26.5924 29.3099 26.5105 29.0207 26.638 28.7904C26.7656 28.5621 27.0547 28.4785 27.2849 28.606C27.5152 28.7334 27.5969 29.0245 27.4694 29.2529C27.382 29.4107 27.2202 29.4981 27.0529 29.4981C26.9748 29.4981 26.8968 29.4792 26.8226 29.4374ZM11.4682 29.4564C11.2399 29.3271 11.1581 29.0377 11.2893 28.8075C11.4168 28.5794 11.7079 28.4992 11.9362 28.6288C12.1646 28.758 12.2445 29.0493 12.117 29.2776C12.0277 29.4317 11.8677 29.5191 11.7022 29.5191C11.6223 29.5191 11.5424 29.4981 11.4682 29.4564ZM41.414 29.3935C41.3169 29.1501 41.435 28.8742 41.6786 28.7752C41.922 28.6783 42.1998 28.7962 42.2969 29.0398C42.3958 29.2832 42.2778 29.561 42.0344 29.6582C41.9753 29.681 41.9164 29.6923 41.8574 29.6923C41.667 29.6923 41.4901 29.5801 41.414 29.3935ZM39.3155 29.4468C39.3134 29.1843 39.5247 28.9694 39.7873 28.9675C40.0498 28.9655 40.2647 29.1767 40.2668 29.4393C40.2706 29.7018 40.0592 29.915 39.7967 29.9188H39.793C39.5305 29.9188 39.3192 29.7076 39.3155 29.4468ZM37.6583 30.461C37.4583 30.2897 37.4355 29.989 37.6068 29.7893C37.7782 29.5896 38.0767 29.5667 38.2766 29.7381C38.4764 29.9091 38.4993 30.2098 38.3298 30.4077V30.4096C38.2346 30.518 38.1014 30.5751 37.9684 30.5751C37.858 30.5751 37.7477 30.5372 37.6583 30.461ZM32.0873 30.5961C31.9864 30.3544 32.1025 30.0747 32.3459 29.9759C32.5877 29.875 32.8672 29.9911 32.9663 30.2345C33.067 30.4763 32.9511 30.7558 32.7075 30.8549C32.6486 30.8796 32.5877 30.891 32.5267 30.891C32.3403 30.891 32.1614 30.7806 32.0873 30.5961ZM20.9491 31.0432C20.7873 30.8357 20.8235 30.5372 21.0309 30.3754C21.2382 30.2137 21.537 30.2498 21.6987 30.4571C21.8605 30.6647 21.8243 30.9632 21.6169 31.1251C21.5294 31.1916 21.4267 31.2258 21.3239 31.2258C21.1831 31.2258 21.0424 31.163 20.9491 31.0432ZM34.2583 31.3362C34.0128 31.243 33.8909 30.9672 33.986 30.7217C34.0793 30.4763 34.3552 30.3544 34.6007 30.4495C34.8462 30.5428 34.9678 30.8187 34.8726 31.0641C34.8004 31.2526 34.6197 31.3685 34.4293 31.3685C34.3723 31.3685 34.3153 31.359 34.2583 31.3362ZM30.0437 31.0355C30.0133 30.773 30.1999 30.5372 30.4624 30.5086C30.7231 30.478 30.959 30.6647 30.9893 30.9252C31.0198 31.1858 30.8314 31.4218 30.5709 31.4522C30.5518 31.4542 30.5347 31.4559 30.5157 31.4559C30.2779 31.4559 30.0724 31.2773 30.0437 31.0355ZM36.3987 31.9166C36.1362 31.8918 35.946 31.6597 35.9724 31.3971C35.9972 31.1364 36.2292 30.9443 36.4919 30.9709H36.4899C36.7525 30.9956 36.9427 31.2278 36.918 31.4904C36.8952 31.7359 36.6878 31.9185 36.4463 31.9185C36.431 31.9185 36.414 31.9185 36.3987 31.9166ZM14.2042 32.4548C13.9987 32.2914 13.9645 31.9908 14.128 31.7872C14.2917 31.5798 14.5924 31.5474 14.7979 31.7111C15.0034 31.8746 15.0357 32.1734 14.872 32.3789C14.7789 32.4969 14.6399 32.5576 14.5011 32.5576C14.3963 32.5576 14.2917 32.5253 14.2042 32.4548ZM19.6154 32.5557C19.3852 32.4245 19.3071 32.1353 19.4365 31.9069C19.5658 31.6787 19.857 31.5987 20.0854 31.7282C20.3136 31.8594 20.3936 32.1487 20.2622 32.3771C20.1747 32.5311 20.0149 32.6186 19.8493 32.6186C19.7694 32.6186 19.6896 32.5976 19.6154 32.5557ZM18.1009 33.3416C17.8478 33.2674 17.7032 33.003 17.7775 32.7518C17.8515 32.4987 18.1162 32.3542 18.3671 32.4284C18.6202 32.5024 18.7648 32.7671 18.6907 33.018C18.6298 33.2256 18.4394 33.3607 18.2339 33.3607C18.1903 33.3607 18.1446 33.355 18.1009 33.3416ZM15.8062 33.2065C15.7702 32.9458 15.9529 32.7061 16.2135 32.6719C16.474 32.6357 16.7118 32.8184 16.7481 33.079C16.7843 33.3378 16.6015 33.5794 16.341 33.6138C16.32 33.6175 16.299 33.6193 16.2761 33.6193C16.0422 33.6193 15.8385 33.4443 15.8062 33.2065Z" fill="#dddddd"/>
    <path d="M7.74264 33.9439C6.98098 33.9439 6.22778 33.5914 5.74641 32.9277C4.94682 31.8255 5.19096 30.2849 6.29147 29.4837L18.4615 20.6424L6.29147 11.7994C5.19096 10.9999 4.94682 9.45753 5.74641 8.35535C6.54588 7.25496 8.08828 7.01082 9.19034 7.81029L24.1047 18.6479C24.7426 19.1121 25.1208 19.8532 25.1208 20.6424C25.1208 21.4316 24.7426 22.1727 24.1047 22.6369L9.19034 33.4728C8.75191 33.7909 8.24477 33.9439 7.74264 33.9439Z" fill="#dddddd"/>
    <path d="M28.3528 40.6401C27.3143 40.6401 26.348 39.9781 26.0092 38.9362L22.5824 28.3909C22.1611 27.0962 22.8712 25.7051 24.166 25.2857C25.4607 24.8644 26.8518 25.5728 27.2712 26.8674L30.6981 37.4127C31.1176 38.7074 30.4093 40.0985 29.1145 40.518C28.8617 40.6005 28.6055 40.6401 28.3528 40.6401Z" fill="#dddddd"/>
    <path d="M41.0925 23.1054H30.0056C28.6439 23.1054 27.54 22.0015 27.54 20.6397C27.54 19.2796 28.6439 18.1758 30.0056 18.1758H41.0925C42.4543 18.1758 43.5582 19.2796 43.5582 20.6397C43.5582 22.0015 42.4543 23.1054 41.0925 23.1054Z" fill="#dddddd"/>
    <path d="M24.9279 16.1166C24.6751 16.1166 24.4189 16.077 24.1662 15.9963C22.8697 15.575 22.1613 14.184 22.5825 12.8893L26.0094 2.344C26.4307 1.04932 27.8216 0.34097 29.1146 0.762233C30.4094 1.18171 31.1178 2.57276 30.6983 3.86744L27.2714 14.4127C26.9327 15.4547 25.9663 16.1166 24.9279 16.1166Z" fill="#dddddd"/>
    <path d="M57.0105 18.0504H55.3985C55.2952 18.0504 55.2441 17.997 55.2441 17.89L55.3249 13.367L55.2441 8.84461C55.2441 8.73762 55.2952 8.68359 55.3985 8.68359H57.6057C57.6912 8.68359 57.753 8.71985 57.7934 8.79106L61.5472 15.4209L61.4665 12.5978V8.84461C61.4665 8.73762 61.5199 8.68359 61.6268 8.68359H63.24C63.3375 8.68359 63.3861 8.73762 63.3861 8.84461L63.3136 13.367L63.3861 17.89C63.3861 17.997 63.3375 18.0504 63.24 18.0504H60.9509C60.8713 18.0504 60.8084 18.0147 60.7643 17.9435L57.0783 11.3665L57.171 14.5846V17.89C57.171 17.997 57.1174 18.0504 57.0105 18.0504Z" fill="#dddddd"/>
    <path d="M68.7519 10.0469L67.5284 14.0479H70.0373L68.7519 10.0469ZM70.9199 7.19053L67.6412 8.02686C67.5439 8.0488 67.4785 8.01326 67.4476 7.91939L67.2136 7.25053C67.1827 7.15678 67.216 7.08784 67.3134 7.04323L70.4519 5.71158C70.5588 5.66709 70.6277 5.69619 70.6586 5.79888L71.0268 6.9898C71.0625 7.09679 71.0268 7.16322 70.9199 7.19053ZM70.2713 8.80915L73.348 17.8682C73.3885 17.9888 73.3468 18.0488 73.2209 18.0488H71.4557C71.3654 18.0488 71.3036 18.0067 71.268 17.9217L70.5516 15.667H67.033L66.35 17.9152C66.3238 18.0043 66.2632 18.0488 66.1694 18.0488H64.4172C64.2924 18.0488 64.2497 17.9888 64.2902 17.8682L67.4404 8.80915C67.4725 8.72483 67.5295 8.68201 67.6151 8.68201H70.0967C70.1822 8.68201 70.2393 8.72483 70.2713 8.80915Z" fill="#dddddd"/>
    <path d="M76.3251 10.1691L76.2717 13.0861H78.3197C78.7472 13.0861 79.1203 12.9767 79.4363 12.7582C79.7534 12.5396 79.9114 12.1761 79.9114 11.6676C79.9114 11.1593 79.7677 10.7826 79.4803 10.5374C79.1927 10.2921 78.7877 10.1691 78.2662 10.1691H76.3251ZM79.7915 14.3572L82.0593 17.8633C82.0948 17.9168 82.1032 17.9613 82.0854 17.997C82.0675 18.0326 82.026 18.0504 81.9582 18.0504H79.9447C79.8556 18.0504 79.7915 18.0147 79.751 17.9435L78.5596 15.9633L77.6437 14.5715H76.2918L76.3524 17.89C76.3524 17.997 76.3014 18.0504 76.1979 18.0504H74.4054C74.302 18.0504 74.251 17.997 74.251 17.89L74.3317 13.367L74.251 8.84461C74.251 8.73762 74.302 8.68359 74.4054 8.68359H78.1854C79.3579 8.68359 80.2666 8.93013 80.9116 9.42307C81.5568 9.91602 81.8787 10.6508 81.8787 11.6279C81.8787 12.3192 81.6969 12.8966 81.3334 13.3604C80.9698 13.8244 80.4556 14.1563 79.7915 14.3572Z" fill="#dddddd"/>
    <path d="M87.5123 16.6831C88.3546 16.6831 89.002 16.3897 89.4557 15.8034C89.9084 15.2171 90.1341 14.413 90.1341 13.3913C90.1341 12.3656 89.9095 11.5518 89.4581 10.9495C89.008 10.3473 88.3546 10.0461 87.498 10.0461C86.6415 10.0461 85.9906 10.3431 85.5451 10.9359C85.0984 11.5293 84.8763 12.3477 84.8763 13.3913C84.8763 14.4082 85.1044 15.2113 85.5618 15.7999C86.0191 16.3891 86.6688 16.6831 87.5123 16.6831ZM87.498 18.2487C86.5442 18.2487 85.7127 18.0426 85.0057 17.6298C84.2989 17.2176 83.7502 16.6462 83.3605 15.9169C82.9697 15.188 82.7749 14.3458 82.7749 13.3913C82.7749 12.3971 82.9685 11.5316 83.3569 10.7957C83.7454 10.0597 84.2931 9.49021 84.9999 9.08624C85.7067 8.68239 86.5394 8.48047 87.498 8.48047C88.4484 8.48047 89.2787 8.6806 89.9903 9.0798C90.7019 9.47888 91.2543 10.0449 91.6464 10.7791C92.0383 11.5126 92.2356 12.3834 92.2356 13.3913C92.2356 14.3458 92.0383 15.188 91.6464 15.9169C91.2543 16.6462 90.7031 17.2176 89.9939 17.6298C89.2847 18.0426 88.4531 18.2487 87.498 18.2487Z" fill="#dddddd"/>
    <path d="M95.4723 13.3272L95.5531 16.5382H97.025C97.4039 16.5382 97.7579 16.4794 98.0882 16.3612C98.4184 16.243 98.7083 16.06 98.9577 15.8123C99.2084 15.5647 99.4031 15.2426 99.5434 14.8459C99.6847 14.4485 99.7549 13.974 99.7549 13.4204C99.7549 12.6803 99.6313 12.0727 99.3866 11.5975C99.1406 11.1223 98.8092 10.7701 98.3899 10.5403C97.9706 10.3104 97.4978 10.1958 96.9715 10.1958H95.5531L95.4723 13.3272ZM96.918 18.0504H93.6061C93.5027 18.0504 93.4517 17.9968 93.4517 17.89L93.5527 13.367L93.4517 8.84449C93.4517 8.73762 93.5027 8.68359 93.6061 8.68359H96.8907C97.5642 8.68359 98.1998 8.77627 98.7974 8.96149C99.3949 9.14684 99.9235 9.4319 100.383 9.81798C100.843 10.2035 101.203 10.6965 101.464 11.2965C101.724 11.8963 101.855 12.609 101.855 13.434C101.855 14.2638 101.723 14.9718 101.461 15.5581C101.197 16.1449 100.836 16.6207 100.376 16.9866C99.9176 17.3524 99.3913 17.6209 98.7974 17.7925C98.2046 17.9649 97.5773 18.0504 96.918 18.0504Z" fill="#dddddd"/>
    <path d="M104.839 18.0504H103.227C103.123 18.0504 103.072 17.997 103.072 17.89L103.153 13.367L103.072 8.84461C103.072 8.73762 103.123 8.68359 103.227 8.68359H105.434C105.519 8.68359 105.581 8.71985 105.622 8.79106L109.375 15.4209L109.295 12.5978V8.84461C109.295 8.73762 109.348 8.68359 109.455 8.68359H111.068C111.166 8.68359 111.214 8.73762 111.214 8.84461L111.142 13.367L111.214 17.89C111.214 17.997 111.166 18.0504 111.068 18.0504H108.779C108.699 18.0504 108.636 18.0147 108.592 17.9435L104.906 11.3665L104.999 14.5846V17.89C104.999 17.997 104.946 18.0504 104.839 18.0504Z" fill="#dddddd"/>
    <path d="M114.707 18.0488H112.928C112.825 18.0488 112.774 17.9954 112.774 17.8884L112.874 13.3654L112.774 8.84303C112.774 8.73604 112.825 8.68201 112.928 8.68201H114.707C114.806 8.68201 114.854 8.73604 114.854 8.84303L114.768 13.3654L114.854 17.8884C114.854 17.9954 114.806 18.0488 114.707 18.0488ZM115.871 7.19053L112.594 8.02686C112.495 8.0488 112.431 8.01326 112.399 7.91939L112.165 7.25053C112.134 7.15666 112.167 7.08784 112.266 7.04323L115.403 5.71158C115.51 5.66709 115.579 5.69619 115.611 5.79888L115.978 6.9898C116.014 7.09667 115.978 7.16322 115.871 7.19053Z" fill="#dddddd"/>
    <path d="M59.0443 27.9112C59.4412 27.9112 59.7844 27.7888 60.0719 27.5435C60.3594 27.2983 60.5031 26.8943 60.5031 26.3324C60.5031 25.7973 60.3712 25.4024 60.1087 25.1481C59.845 24.8939 59.4732 24.7668 58.9909 24.7668H57.3254L57.272 27.9112H59.0443ZM58.9112 23.2812C60.0433 23.2812 60.9201 23.5337 61.5402 24.0374C62.1603 24.5417 62.4703 25.293 62.4703 26.2921C62.4703 27.2734 62.1543 28.036 61.5235 28.58C60.8928 29.1247 60.0172 29.3967 58.897 29.3967H57.285L57.3456 32.4877C57.3456 32.5946 57.2957 32.648 57.1983 32.648H55.3986C55.2952 32.648 55.2441 32.5946 55.2441 32.4877L55.332 27.9646L55.2441 23.4423C55.2441 23.3353 55.2952 23.2812 55.3986 23.2812H58.9112Z" fill="#dddddd"/>
    <path d="M69.4943 32.648H63.7946C63.6913 32.648 63.6401 32.5946 63.6401 32.4876L63.7412 27.9646L63.6401 23.4423C63.6401 23.3353 63.6913 23.2812 63.7946 23.2812H65.5872C65.6857 23.2812 65.7345 23.3353 65.7345 23.4423L65.6608 27.8441L65.7417 31.1358H69.4943C69.5977 31.1358 69.6487 31.1892 69.6487 31.2968V32.4876C69.6487 32.5946 69.5977 32.648 69.4943 32.648Z" fill="#dddddd"/>
    <path d="M74.752 24.6446L73.5284 28.6455H76.0374L74.752 24.6446ZM76.92 21.7882L73.6412 22.6245C73.5439 22.6465 73.4785 22.6109 73.4477 22.5171L73.2136 21.8482C73.1828 21.7543 73.216 21.6855 73.3134 21.6409L76.452 20.3092C76.5588 20.2647 76.6278 20.2938 76.6587 20.3965L77.0268 21.5875C77.0625 21.6944 77.0268 21.7609 76.92 21.7882ZM76.2714 23.4068L79.3481 32.4659C79.3885 32.5865 79.3469 32.6465 79.2209 32.6465H77.4557C77.3655 32.6465 77.3037 32.6042 77.268 32.5193L76.5517 30.2646H73.0331L72.35 32.5129C72.3239 32.602 72.2633 32.6465 72.1694 32.6465H70.4172C70.2925 32.6465 70.2498 32.5865 70.2901 32.4659L73.4405 23.4068C73.4726 23.3225 73.5296 23.2797 73.6151 23.2797H76.0968C76.1823 23.2797 76.2393 23.3225 76.2714 23.4068Z" fill="#dddddd"/>
    <path d="M82.0184 32.648H80.4063C80.303 32.648 80.252 32.5946 80.252 32.4876L80.3327 27.9646L80.252 23.4423C80.252 23.3353 80.303 23.2812 80.4063 23.2812H82.6135C82.699 23.2812 82.7608 23.3175 82.8012 23.3887L86.555 30.0186L86.4743 27.1955V23.4423C86.4743 23.3353 86.5277 23.2812 86.6346 23.2812H88.2479C88.3453 23.2812 88.394 23.3353 88.394 23.4423L88.3214 27.9646L88.394 32.4876C88.394 32.5946 88.3453 32.648 88.2479 32.648H85.9587C85.8791 32.648 85.8162 32.6124 85.7722 32.5412L82.0861 25.9641L82.1788 29.1823V32.4876C82.1788 32.5946 82.1252 32.648 82.0184 32.648Z" fill="#dddddd"/>
    <path d="M97.1935 31.2807C98.0358 31.2807 98.6832 30.9873 99.1369 30.4011C99.5895 29.8148 99.8153 29.0106 99.8153 27.989C99.8153 26.9632 99.5907 26.1495 99.1393 25.5471C98.6891 24.9449 98.0358 24.6438 97.1792 24.6438C96.3227 24.6438 95.6717 24.9408 95.2262 25.5335C94.7796 26.1269 94.5575 26.9454 94.5575 27.989C94.5575 29.0059 94.7855 29.8089 95.2429 30.3975C95.7002 30.9867 96.35 31.2807 97.1935 31.2807ZM97.1792 32.8464C96.2254 32.8464 95.3938 32.6403 94.687 32.2275C93.9801 31.8153 93.4313 31.2439 93.0417 30.5145C92.6508 29.7857 92.4561 28.9435 92.4561 27.989C92.4561 26.9947 92.6496 26.1293 93.0381 25.3934C93.4266 24.6574 93.9742 24.0879 94.681 23.6839C95.3878 23.28 96.2206 23.0781 97.1792 23.0781C98.1295 23.0781 98.9599 23.2783 99.6714 23.6773C100.383 24.0765 100.935 24.6426 101.328 25.3767C101.719 26.1102 101.917 26.981 101.917 27.989C101.917 28.9435 101.719 29.7857 101.328 30.5145C100.935 31.2439 100.384 31.8153 99.675 32.2275C98.9658 32.6403 98.1343 32.8464 97.1792 32.8464Z" fill="#dddddd"/>
    <path d="M105.154 28.4731L105.235 31.2297H107.322C107.747 31.2297 108.102 31.1304 108.389 30.9321C108.677 30.7338 108.822 30.3601 108.822 29.8113C108.822 29.4811 108.753 29.2179 108.617 29.0219C108.481 28.8259 108.299 28.6852 108.072 28.6002C107.844 28.5159 107.595 28.4731 107.322 28.4731H105.154ZM105.235 24.6996L105.154 27.0547H107.322C107.719 27.0547 108.03 26.9555 108.256 26.7572C108.481 26.5588 108.594 26.2701 108.594 25.8905C108.594 25.4759 108.469 25.1736 108.219 24.9842C107.969 24.7947 107.67 24.6996 107.322 24.6996H105.235ZM107.363 32.648H103.288C103.185 32.648 103.134 32.5946 103.134 32.4877L103.228 27.9646L103.134 23.4423C103.134 23.3353 103.185 23.2812 103.288 23.2812H107.295C107.933 23.2812 108.503 23.362 109.005 23.5224C109.507 23.6828 109.903 23.934 110.192 24.275C110.482 24.6165 110.627 25.0566 110.627 25.5965C110.627 26.1584 110.487 26.6057 110.206 26.9377C109.925 27.2704 109.526 27.5144 109.008 27.6706C109.638 27.8084 110.107 28.071 110.417 28.4565C110.727 28.8426 110.881 29.2939 110.881 29.8113C110.881 30.3198 110.784 30.7539 110.587 31.1127C110.391 31.4714 110.127 31.7648 109.794 31.9923C109.462 32.2199 109.086 32.3861 108.667 32.4906C108.248 32.5958 107.813 32.648 107.363 32.648Z" fill="#dddddd"/>
    <path d="M113.778 32.648H112.166C112.063 32.648 112.012 32.5946 112.012 32.4876L112.092 27.9646L112.012 23.4423C112.012 23.3353 112.063 23.2812 112.166 23.2812H114.373C114.459 23.2812 114.521 23.3175 114.561 23.3887L118.315 30.0186L118.234 27.1955V23.4423C118.234 23.3353 118.287 23.2812 118.394 23.2812H120.008C120.105 23.2812 120.154 23.3353 120.154 23.4423L120.081 27.9646L120.154 32.4876C120.154 32.5946 120.105 32.648 120.008 32.648H117.718C117.639 32.648 117.576 32.6124 117.532 32.5412L113.846 25.9641L113.939 29.1823V32.4876C113.939 32.5946 113.885 32.648 113.778 32.648Z" fill="#dddddd"/>
    <path d="M126.115 31.2807C126.958 31.2807 127.605 30.9873 128.059 30.4011C128.511 29.8148 128.737 29.0106 128.737 27.989C128.737 26.9632 128.513 26.1495 128.061 25.5471C127.611 24.9449 126.958 24.6438 126.101 24.6438C125.245 24.6438 124.594 24.9408 124.148 25.5335C123.701 26.1269 123.479 26.9454 123.479 27.989C123.479 29.0059 123.707 29.8089 124.165 30.3975C124.622 30.9867 125.272 31.2807 126.115 31.2807ZM126.101 32.8464C125.147 32.8464 124.316 32.6403 123.609 32.2275C122.902 31.8153 122.353 31.2439 121.964 30.5145C121.573 29.7857 121.378 28.9435 121.378 27.989C121.378 26.9947 121.572 26.1293 121.96 25.3934C122.348 24.6574 122.896 24.0879 123.603 23.6839C124.31 23.28 125.142 23.0781 126.101 23.0781C127.051 23.0781 127.882 23.2783 128.593 23.6773C129.305 24.0765 129.857 24.6426 130.249 25.3767C130.641 26.1102 130.839 26.981 130.839 27.989C130.839 28.9435 130.641 29.7857 130.249 30.5145C129.857 31.2439 129.306 31.8153 128.597 32.2275C127.888 32.6403 127.056 32.8464 126.101 32.8464Z" fill="#dddddd"/>
    <path d="M133.975 32.5209L130.998 23.4624C130.958 23.3418 131 23.2812 131.125 23.2812H133.065C133.159 23.2812 133.217 23.3263 133.239 23.4154L135.474 31.1025L137.648 23.4154C137.674 23.3263 137.732 23.2812 137.822 23.2812H139.501C139.631 23.2812 139.675 23.3418 139.636 23.4624L136.725 32.5209C136.698 32.6058 136.638 32.648 136.545 32.648H134.156C134.067 32.648 134.006 32.6058 133.975 32.5209Z" fill="#dddddd"/>
    <path d="M143.262 29.4769L140.138 23.469C140.076 23.3442 140.114 23.2812 140.252 23.2812H142.219C142.308 23.2812 142.37 23.3217 142.407 23.4018L144.319 27.7105L146.246 23.4018C146.282 23.3217 146.345 23.2812 146.434 23.2812H148.226C148.369 23.2812 148.407 23.3442 148.34 23.469L145.209 29.4769L145.283 32.4876C145.283 32.5946 145.234 32.648 145.135 32.648H143.335C143.229 32.648 143.178 32.5946 143.182 32.4876L143.262 29.4769Z" fill="#dddddd"/>
</svg>
